<svg width="92" height="92" viewBox="0 0 92 92" fill="none" xmlns="http://www.w3.org/2000/svg">
<circle cx="46" cy="46" r="46" fill="#FECACA"/>
<g clip-path="url(#clip0_430_7642)">
<path d="M32.546 47.5083C32.546 47.5171 32.546 47.525 32.546 47.5328C33.3876 49.017 33.8281 50.6948 33.8241 52.4009V54.2851C37.4174 52.8798 41.6202 52.1385 46.0129 52.1385C51.8365 52.1385 56.1129 53.4077 58.3645 54.2796L58.3801 52.3997C58.3801 50.3692 58.859 48.5531 59.6974 47.0806L61.595 34.5783C62.0851 31.3713 61.2378 28.3037 59.2061 25.9395C57.0517 23.4368 53.7889 21.999 50.2547 21.999H41.9518C38.4109 21.999 35.1424 23.4368 32.9958 25.9428C30.9665 28.3082 30.1181 31.3758 30.6082 34.5806L32.546 47.5083Z" fill="#C28182"/>
<path d="M66.1703 45.4409C62.5234 45.4409 60.6157 48.9426 60.6157 52.3998V54.4716C60.6157 55.243 60.2541 55.9663 59.6692 56.3558C59.1638 56.6957 58.5209 56.7574 57.9601 56.5199C56.0066 55.7173 51.8607 54.3711 46.016 54.3711C41.7373 54.3711 37.6685 55.1145 34.2493 56.5199C33.6884 56.7583 33.045 56.6971 32.5392 56.357C31.9554 55.9663 31.5926 55.2407 31.5926 54.4727V52.3998C31.5926 48.4929 28.9136 45.4409 25.4889 45.4409C23.6035 45.4409 22.5742 47.6734 22.5742 48.812C22.5742 50.1963 23.5465 51.7501 24.7421 52.2725C24.8638 52.3261 24.9977 52.3842 25.1406 52.4355C26.2256 52.8686 28.2438 53.6734 28.2438 55.9864V60.4738C28.2438 62.1483 28.6043 65.832 31.6172 66.5252C31.6067 66.5656 31.5984 66.6066 31.5926 66.6479V68.8805C31.5926 69.497 32.0924 69.9968 32.7089 69.9968H33.8253C34.4418 69.9968 34.9416 69.497 34.9416 68.8805V66.6501H57.2671V68.8828C57.2671 69.4993 57.7669 69.9991 58.3834 69.9991H59.4997C60.1162 69.9991 60.616 69.4993 60.616 68.8828V66.6502C60.616 66.6189 60.6004 66.5922 60.5981 66.562C63.3475 66.0374 63.9649 63.0379 63.9649 60.4772V55.9897C63.9649 53.6745 65.9742 52.8698 67.0559 52.4366C67.1954 52.3809 67.3271 52.325 67.4477 52.2747C68.5762 51.778 69.457 50.2554 69.457 48.8142C69.4578 47.6578 68.0691 45.4409 66.1703 45.4409Z" fill="#12131A"/>
</g>
<defs>
<clipPath id="clip0_430_7642">
<rect width="48" height="48" fill="white" transform="translate(22 22)"/>
</clipPath>
</defs>
</svg>
