<svg xmlns="http://www.w3.org/2000/svg"  viewBox="0 0 48 48" width="480px" height="480px"><path fill="#f44336" d="M9,7h3v29H9V7z M36,7h3v29h-3V7z"/><path fill="#fb8c00" d="M34,31h7v5h-7V31z M7,31h7v5H7V31z"/><path fill="#e57373" d="M33,14h1v8h-1V14z M41,14.2h1V22h-1V14.2z M44,17h1v5h-1V17z M30,17h1v5h-1V17z M27,18.8h1V22h-1	V18.8z M14,14h1v8h-1V14z M6,14.2h1V22H6V14.2z M3,17h1v5H3V17z M17,17h1v5h-1V17z M20,18.8h1V22h-1V18.8z"/><path fill="#f44336" d="M2,21h44v2H2V21z M24,20c-8,0-12.5-9.6-13.3-11.5h-0.3C9.6,10.2,5.9,18,2,18v-1c3,0,6.5-6.6,7.5-9.2	l0.1-0.3h1.7l0.1,0.3C11.5,7.9,16,19,24,19S36.5,7.9,36.5,7.8l0.1-0.3h1.7l0.1,0.3C39.5,10.4,43,17,46,17v1c-3.9,0-7.6-7.8-8.3-9.5	h-0.3C36.5,10.4,32,20,24,20z"/><path fill="#90caf9" d="M42,32c0,0-1,2-4,2s-4-2-4-2s-1,2-4,2s-4-2-4-2s-1,2-4,2s-4-2-4-2s-1,2-4,2s-4-2-4-2s-1,2-4,2	s-4-2-4-2v10h4h4h24h4h4h4v-8C43,34,42,32,42,32z"/><path fill="#2196f3" d="M42,36c0,0-1,2-4,2s-4-2-4-2s-1,2-4,2s-4-2-4-2s-1,2-4,2s-4-2-4-2s-1,2-4,2s-4-2-4-2s-1,2-4,2	s-4-2-4-2v6h4h4h24h4h4h4v-4C43,38,42,36,42,36z"/></svg>