<svg width="253" height="30" viewBox="0 0 253 30" fill="none" xmlns="http://www.w3.org/2000/svg">
<path d="M6.90006 21.128C6.03606 21.128 5.2414 20.9893 4.51606 20.712C3.79073 20.424 3.1614 20.024 2.62806 19.512C2.09473 18.9893 1.67873 18.3813 1.38006 17.688C1.0814 16.9947 0.932063 16.232 0.932063 15.4C0.932063 14.568 1.0814 13.8053 1.38006 13.112C1.67873 12.4187 2.09473 11.816 2.62806 11.304C3.17206 10.7813 3.80673 10.3813 4.53206 10.104C5.2574 9.816 6.0574 9.672 6.93206 9.672C7.8174 9.672 8.62806 9.816 9.36406 10.104C10.1001 10.392 10.7241 10.824 11.2361 11.4L10.2441 12.392C9.7854 11.944 9.28406 11.6187 8.74006 11.416C8.20673 11.2027 7.6254 11.096 6.99606 11.096C6.35606 11.096 5.75873 11.2027 5.20406 11.416C4.66006 11.6293 4.1854 11.928 3.78006 12.312C3.3854 12.696 3.07606 13.1547 2.85206 13.688C2.63873 14.2107 2.53206 14.7813 2.53206 15.4C2.53206 16.008 2.63873 16.5787 2.85206 17.112C3.07606 17.6347 3.3854 18.0933 3.78006 18.488C4.1854 18.872 4.66006 19.1707 5.20406 19.384C5.74806 19.5973 6.34006 19.704 6.98006 19.704C7.5774 19.704 8.14806 19.6133 8.69206 19.432C9.24673 19.24 9.75873 18.9253 10.2281 18.488L11.1401 19.704C10.5854 20.1733 9.93473 20.5307 9.18806 20.776C8.45206 21.0107 7.6894 21.128 6.90006 21.128ZM9.60406 19.496V15.336H11.1401V19.704L9.60406 19.496ZM17.6114 21.096C16.7581 21.096 16.0008 20.9093 15.3394 20.536C14.6781 20.1627 14.1554 19.6507 13.7714 19C13.3874 18.3387 13.1954 17.592 13.1954 16.76C13.1954 15.9173 13.3874 15.1707 13.7714 14.52C14.1554 13.8693 14.6781 13.3627 15.3394 13C16.0008 12.6267 16.7581 12.44 17.6114 12.44C18.4541 12.44 19.2061 12.6267 19.8674 13C20.5394 13.3627 21.0621 13.8693 21.4354 14.52C21.8194 15.16 22.0114 15.9067 22.0114 16.76C22.0114 17.6027 21.8194 18.3493 21.4354 19C21.0621 19.6507 20.5394 20.1627 19.8674 20.536C19.2061 20.9093 18.4541 21.096 17.6114 21.096ZM17.6114 19.752C18.1554 19.752 18.6408 19.6293 19.0674 19.384C19.5048 19.1387 19.8461 18.792 20.0914 18.344C20.3368 17.8853 20.4594 17.3573 20.4594 16.76C20.4594 16.152 20.3368 15.6293 20.0914 15.192C19.8461 14.744 19.5048 14.3973 19.0674 14.152C18.6408 13.9067 18.1554 13.784 17.6114 13.784C17.0674 13.784 16.5821 13.9067 16.1554 14.152C15.7288 14.3973 15.3874 14.744 15.1314 15.192C14.8754 15.6293 14.7474 16.152 14.7474 16.76C14.7474 17.3573 14.8754 17.8853 15.1314 18.344C15.3874 18.792 15.7288 19.1387 16.1554 19.384C16.5821 19.6293 17.0674 19.752 17.6114 19.752ZM28.6637 12.44C29.357 12.44 29.965 12.5733 30.4877 12.84C31.021 13.1067 31.437 13.512 31.7357 14.056C32.0344 14.6 32.1837 15.288 32.1837 16.12V21H30.6477V16.296C30.6477 15.4747 30.445 14.856 30.0397 14.44C29.645 14.024 29.085 13.816 28.3597 13.816C27.8157 13.816 27.341 13.9227 26.9357 14.136C26.5304 14.3493 26.2157 14.664 25.9917 15.08C25.7784 15.496 25.6717 16.0133 25.6717 16.632V21H24.1357V12.52H25.6077V14.808L25.3677 14.2C25.645 13.6453 26.0717 13.2133 26.6477 12.904C27.2237 12.5947 27.8957 12.44 28.6637 12.44ZM38.7223 21.096C37.8583 21.096 37.085 20.9093 36.4023 20.536C35.7303 20.1627 35.2023 19.6507 34.8183 19C34.4343 18.3493 34.2423 17.6027 34.2423 16.76C34.2423 15.9173 34.4343 15.1707 34.8183 14.52C35.2023 13.8693 35.7303 13.3627 36.4023 13C37.085 12.6267 37.8583 12.44 38.7223 12.44C39.4903 12.44 40.173 12.5947 40.7703 12.904C41.3783 13.2027 41.8476 13.6507 42.1783 14.248L41.0103 15C40.733 14.584 40.3916 14.28 39.9863 14.088C39.5916 13.8853 39.165 13.784 38.7063 13.784C38.1516 13.784 37.6556 13.9067 37.2183 14.152C36.781 14.3973 36.4343 14.744 36.1783 15.192C35.9223 15.6293 35.7943 16.152 35.7943 16.76C35.7943 17.368 35.9223 17.896 36.1783 18.344C36.4343 18.792 36.781 19.1387 37.2183 19.384C37.6556 19.6293 38.1516 19.752 38.7063 19.752C39.165 19.752 39.5916 19.656 39.9863 19.464C40.3916 19.2613 40.733 18.952 41.0103 18.536L42.1783 19.272C41.8476 19.8587 41.3783 20.312 40.7703 20.632C40.173 20.9413 39.4903 21.096 38.7223 21.096ZM37.9703 24.584C37.693 24.584 37.437 24.552 37.2023 24.488C36.9676 24.4347 36.749 24.3493 36.5463 24.232L36.8823 23.448C37.053 23.544 37.2236 23.6133 37.3943 23.656C37.5756 23.6987 37.7676 23.72 37.9703 23.72C38.2796 23.72 38.5036 23.6613 38.6423 23.544C38.7916 23.4373 38.8663 23.2827 38.8663 23.08C38.8663 22.888 38.7916 22.7333 38.6423 22.616C38.5036 22.5093 38.2743 22.456 37.9543 22.456H37.5223L37.9223 20.888H38.8023L38.5623 21.8C39.021 21.8427 39.3676 21.9867 39.6023 22.232C39.837 22.4773 39.9543 22.776 39.9543 23.128C39.9543 23.576 39.773 23.928 39.4103 24.184C39.0476 24.4507 38.5676 24.584 37.9703 24.584ZM49.4309 21V19.208L49.3509 18.872V15.816C49.3509 15.1653 49.1589 14.664 48.7749 14.312C48.4016 13.9493 47.8363 13.768 47.0789 13.768C46.5776 13.768 46.0869 13.8533 45.6069 14.024C45.1269 14.184 44.7216 14.4027 44.3909 14.68L43.7509 13.528C44.1883 13.176 44.7109 12.9093 45.3189 12.728C45.9376 12.536 46.5829 12.44 47.2549 12.44C48.4176 12.44 49.3136 12.7227 49.9429 13.288C50.5723 13.8533 50.8869 14.7173 50.8869 15.88V21H49.4309ZM46.6469 21.096C46.0176 21.096 45.4629 20.9893 44.9829 20.776C44.5136 20.5627 44.1509 20.2693 43.8949 19.896C43.6389 19.512 43.5109 19.08 43.5109 18.6C43.5109 18.1413 43.6176 17.7253 43.8309 17.352C44.0549 16.9787 44.4123 16.68 44.9029 16.456C45.4043 16.232 46.0763 16.12 46.9189 16.12H49.6069V17.224H46.9829C46.2149 17.224 45.6976 17.352 45.4309 17.608C45.1643 17.864 45.0309 18.1733 45.0309 18.536C45.0309 18.952 45.1963 19.288 45.5269 19.544C45.8576 19.7893 46.3163 19.912 46.9029 19.912C47.4789 19.912 47.9803 19.784 48.4069 19.528C48.8443 19.272 49.1589 18.8987 49.3509 18.408L49.6549 19.464C49.4523 19.9653 49.0949 20.3653 48.5829 20.664C48.0709 20.952 47.4256 21.096 46.6469 21.096ZM53.7294 21V9.128H55.2654V21H53.7294ZM61.8302 21.096C60.9769 21.096 60.2195 20.9093 59.5582 20.536C58.8969 20.1627 58.3742 19.6507 57.9902 19C57.6062 18.3387 57.4142 17.592 57.4142 16.76C57.4142 15.9173 57.6062 15.1707 57.9902 14.52C58.3742 13.8693 58.8969 13.3627 59.5582 13C60.2195 12.6267 60.9769 12.44 61.8302 12.44C62.6729 12.44 63.4249 12.6267 64.0862 13C64.7582 13.3627 65.2809 13.8693 65.6542 14.52C66.0382 15.16 66.2302 15.9067 66.2302 16.76C66.2302 17.6027 66.0382 18.3493 65.6542 19C65.2809 19.6507 64.7582 20.1627 64.0862 20.536C63.4249 20.9093 62.6729 21.096 61.8302 21.096ZM61.8302 19.752C62.3742 19.752 62.8595 19.6293 63.2862 19.384C63.7235 19.1387 64.0649 18.792 64.3102 18.344C64.5555 17.8853 64.6782 17.3573 64.6782 16.76C64.6782 16.152 64.5555 15.6293 64.3102 15.192C64.0649 14.744 63.7235 14.3973 63.2862 14.152C62.8595 13.9067 62.3742 13.784 61.8302 13.784C61.2862 13.784 60.8009 13.9067 60.3742 14.152C59.9475 14.3973 59.6062 14.744 59.3502 15.192C59.0942 15.6293 58.9662 16.152 58.9662 16.76C58.9662 17.3573 59.0942 17.8853 59.3502 18.344C59.6062 18.792 59.9475 19.1387 60.3742 19.384C60.8009 19.6293 61.2862 19.752 61.8302 19.752ZM72.8753 21V9.8H74.1873L79.2113 18.264H78.5073L83.4673 9.8H84.7793L84.7953 21H83.2593L83.2433 12.216H83.6113L79.1953 19.64H78.4593L74.0113 12.216H74.4113V21H72.8753ZM93.1966 21V19.208L93.1166 18.872V15.816C93.1166 15.1653 92.9246 14.664 92.5406 14.312C92.1672 13.9493 91.6019 13.768 90.8446 13.768C90.3432 13.768 89.8526 13.8533 89.3726 14.024C88.8926 14.184 88.4872 14.4027 88.1566 14.68L87.5166 13.528C87.9539 13.176 88.4766 12.9093 89.0846 12.728C89.7032 12.536 90.3486 12.44 91.0206 12.44C92.1832 12.44 93.0792 12.7227 93.7086 13.288C94.3379 13.8533 94.6526 14.7173 94.6526 15.88V21H93.1966ZM90.4126 21.096C89.7832 21.096 89.2286 20.9893 88.7486 20.776C88.2792 20.5627 87.9166 20.2693 87.6606 19.896C87.4046 19.512 87.2766 19.08 87.2766 18.6C87.2766 18.1413 87.3832 17.7253 87.5966 17.352C87.8206 16.9787 88.1779 16.68 88.6686 16.456C89.1699 16.232 89.8419 16.12 90.6846 16.12H93.3726V17.224H90.7486C89.9806 17.224 89.4632 17.352 89.1966 17.608C88.9299 17.864 88.7966 18.1733 88.7966 18.536C88.7966 18.952 88.9619 19.288 89.2926 19.544C89.6232 19.7893 90.0819 19.912 90.6686 19.912C91.2446 19.912 91.7459 19.784 92.1726 19.528C92.6099 19.272 92.9246 18.8987 93.1166 18.408L93.4206 19.464C93.2179 19.9653 92.8606 20.3653 92.3486 20.664C91.8366 20.952 91.1912 21.096 90.4126 21.096ZM97.4951 21V12.52H98.9671V14.824L98.8231 14.248C99.0577 13.6613 99.4524 13.2133 100.007 12.904C100.562 12.5947 101.244 12.44 102.055 12.44V13.928C101.991 13.9173 101.927 13.912 101.863 13.912C101.81 13.912 101.756 13.912 101.703 13.912C100.882 13.912 100.231 14.1573 99.7511 14.648C99.2711 15.1387 99.0311 15.848 99.0311 16.776V21H97.4951ZM107.204 21.096C106.351 21.096 105.689 20.8667 105.22 20.408C104.751 19.9493 104.516 19.2933 104.516 18.44V10.664H106.052V18.376C106.052 18.8347 106.164 19.1867 106.388 19.432C106.623 19.6773 106.953 19.8 107.38 19.8C107.86 19.8 108.26 19.6667 108.58 19.4L109.06 20.504C108.825 20.7067 108.543 20.856 108.212 20.952C107.892 21.048 107.556 21.096 107.204 21.096ZM103.076 13.784V12.52H108.484V13.784H103.076ZM110.917 21V12.52H112.453V21H110.917ZM111.685 10.888C111.386 10.888 111.136 10.792 110.933 10.6C110.741 10.408 110.645 10.1733 110.645 9.896C110.645 9.608 110.741 9.368 110.933 9.176C111.136 8.984 111.386 8.888 111.685 8.888C111.984 8.888 112.229 8.984 112.421 9.176C112.624 9.35733 112.725 9.58667 112.725 9.864C112.725 10.152 112.629 10.3973 112.437 10.6C112.245 10.792 111.994 10.888 111.685 10.888ZM119.914 12.44C120.607 12.44 121.215 12.5733 121.738 12.84C122.271 13.1067 122.687 13.512 122.986 14.056C123.284 14.6 123.434 15.288 123.434 16.12V21H121.898V16.296C121.898 15.4747 121.695 14.856 121.29 14.44C120.895 14.024 120.335 13.816 119.61 13.816C119.066 13.816 118.591 13.9227 118.186 14.136C117.78 14.3493 117.466 14.664 117.242 15.08C117.028 15.496 116.922 16.0133 116.922 16.632V21H115.386V12.52H116.858V14.808L116.618 14.2C116.895 13.6453 117.322 13.2133 117.898 12.904C118.474 12.5947 119.146 12.44 119.914 12.44ZM128.708 21.096C128.004 21.096 127.332 21 126.692 20.808C126.063 20.616 125.567 20.3813 125.204 20.104L125.844 18.888C126.207 19.1333 126.655 19.3413 127.188 19.512C127.722 19.6827 128.266 19.768 128.82 19.768C129.535 19.768 130.047 19.6667 130.356 19.464C130.676 19.2613 130.836 18.9787 130.836 18.616C130.836 18.3493 130.74 18.1413 130.548 17.992C130.356 17.8427 130.1 17.7307 129.78 17.656C129.471 17.5813 129.124 17.5173 128.74 17.464C128.356 17.4 127.972 17.3253 127.588 17.24C127.204 17.144 126.852 17.016 126.532 16.856C126.212 16.6853 125.956 16.456 125.764 16.168C125.572 15.8693 125.476 15.4747 125.476 14.984C125.476 14.472 125.62 14.024 125.908 13.64C126.196 13.256 126.602 12.9627 127.124 12.76C127.658 12.5467 128.287 12.44 129.012 12.44C129.567 12.44 130.127 12.5093 130.692 12.648C131.268 12.776 131.738 12.9627 132.1 13.208L131.444 14.424C131.06 14.168 130.66 13.992 130.244 13.896C129.828 13.8 129.412 13.752 128.996 13.752C128.324 13.752 127.823 13.864 127.492 14.088C127.162 14.3013 126.996 14.5787 126.996 14.92C126.996 15.208 127.092 15.432 127.284 15.592C127.487 15.7413 127.743 15.8587 128.052 15.944C128.372 16.0293 128.724 16.104 129.108 16.168C129.492 16.2213 129.876 16.296 130.26 16.392C130.644 16.4773 130.991 16.6 131.3 16.76C131.62 16.92 131.876 17.144 132.068 17.432C132.271 17.72 132.372 18.104 132.372 18.584C132.372 19.096 132.223 19.5387 131.924 19.912C131.626 20.2853 131.204 20.5787 130.66 20.792C130.116 20.9947 129.466 21.096 128.708 21.096Z" fill="#303741"/>
<path d="M147.492 21.192C145.902 21.192 144.66 20.7493 143.764 19.864C142.868 18.9787 142.42 17.7147 142.42 16.072V9.8H145.012V15.976C145.012 17.0427 145.23 17.8107 145.668 18.28C146.105 18.7493 146.718 18.984 147.508 18.984C148.297 18.984 148.91 18.7493 149.348 18.28C149.785 17.8107 150.003 17.0427 150.003 15.976V9.8H152.564V16.072C152.564 17.7147 152.116 18.9787 151.22 19.864C150.324 20.7493 149.081 21.192 147.492 21.192ZM153.689 21L158.505 14.36V16.248L153.897 9.8H156.841L160.025 14.296L158.793 14.312L161.929 9.8H164.745L160.169 16.136V14.28L165.017 21H162.025L158.729 16.248H159.913L156.665 21H153.689ZM164.738 22.6L170.018 7.528H172.242L166.962 22.6H164.738ZM177.835 21.192C176.246 21.192 175.003 20.7493 174.107 19.864C173.211 18.9787 172.763 17.7147 172.763 16.072V9.8H175.355V15.976C175.355 17.0427 175.574 17.8107 176.011 18.28C176.449 18.7493 177.062 18.984 177.851 18.984C178.641 18.984 179.254 18.7493 179.691 18.28C180.129 17.8107 180.347 17.0427 180.347 15.976V9.8H182.907V16.072C182.907 17.7147 182.459 18.9787 181.563 19.864C180.667 20.7493 179.425 21.192 177.835 21.192ZM185.469 21V9.8H188.061V21H185.469ZM195.25 21V9.8H200.338C201.554 9.8 202.626 10.0347 203.554 10.504C204.482 10.9627 205.207 11.608 205.73 12.44C206.253 13.272 206.514 14.2587 206.514 15.4C206.514 16.5307 206.253 17.5173 205.73 18.36C205.207 19.192 204.482 19.8427 203.554 20.312C202.626 20.7707 201.554 21 200.338 21H195.25ZM197.842 18.872H200.21C200.957 18.872 201.602 18.7333 202.146 18.456C202.701 18.168 203.127 17.7627 203.426 17.24C203.735 16.7173 203.89 16.104 203.89 15.4C203.89 14.6853 203.735 14.072 203.426 13.56C203.127 13.0373 202.701 12.6373 202.146 12.36C201.602 12.072 200.957 11.928 200.21 11.928H197.842V18.872ZM212.565 21.128C211.583 21.128 210.719 20.936 209.973 20.552C209.237 20.168 208.666 19.6453 208.261 18.984C207.855 18.312 207.653 17.5493 207.653 16.696C207.653 15.832 207.85 15.0693 208.245 14.408C208.65 13.736 209.199 13.2133 209.893 12.84C210.586 12.456 211.37 12.264 212.245 12.264C213.087 12.264 213.845 12.4453 214.517 12.808C215.199 13.16 215.738 13.672 216.133 14.344C216.527 15.0053 216.725 15.8 216.725 16.728C216.725 16.824 216.719 16.936 216.709 17.064C216.698 17.1813 216.687 17.2933 216.677 17.4H209.685V15.944H215.365L214.405 16.376C214.405 15.928 214.314 15.5387 214.133 15.208C213.951 14.8773 213.701 14.6213 213.381 14.44C213.061 14.248 212.687 14.152 212.261 14.152C211.834 14.152 211.455 14.248 211.125 14.44C210.805 14.6213 210.554 14.8827 210.373 15.224C210.191 15.5547 210.101 15.9493 210.101 16.408V16.792C210.101 17.2613 210.202 17.6773 210.405 18.04C210.618 18.392 210.911 18.664 211.285 18.856C211.669 19.0373 212.117 19.128 212.629 19.128C213.087 19.128 213.487 19.0587 213.829 18.92C214.181 18.7813 214.501 18.5733 214.789 18.296L216.117 19.736C215.722 20.184 215.226 20.5307 214.629 20.776C214.031 21.0107 213.343 21.128 212.565 21.128ZM221.282 21.128C220.546 21.128 219.837 21.0427 219.154 20.872C218.482 20.6907 217.949 20.4667 217.554 20.2L218.386 18.408C218.781 18.6533 219.245 18.856 219.778 19.016C220.322 19.1653 220.856 19.24 221.378 19.24C221.954 19.24 222.36 19.1707 222.594 19.032C222.84 18.8933 222.962 18.7013 222.962 18.456C222.962 18.2533 222.866 18.104 222.674 18.008C222.493 17.9013 222.248 17.8213 221.938 17.768C221.629 17.7147 221.288 17.6613 220.914 17.608C220.552 17.5547 220.184 17.4853 219.81 17.4C219.437 17.304 219.096 17.1653 218.786 16.984C218.477 16.8027 218.226 16.5573 218.034 16.248C217.853 15.9387 217.762 15.5387 217.762 15.048C217.762 14.504 217.917 14.024 218.226 13.608C218.546 13.192 219.005 12.8667 219.602 12.632C220.2 12.3867 220.914 12.264 221.746 12.264C222.333 12.264 222.93 12.328 223.538 12.456C224.146 12.584 224.653 12.7707 225.058 13.016L224.226 14.792C223.81 14.5467 223.389 14.3813 222.962 14.296C222.546 14.2 222.141 14.152 221.746 14.152C221.192 14.152 220.786 14.2267 220.53 14.376C220.274 14.5253 220.146 14.7173 220.146 14.952C220.146 15.1653 220.237 15.3253 220.418 15.432C220.61 15.5387 220.861 15.624 221.17 15.688C221.48 15.752 221.816 15.8107 222.178 15.864C222.552 15.9067 222.925 15.976 223.298 16.072C223.672 16.168 224.008 16.3067 224.306 16.488C224.616 16.6587 224.866 16.8987 225.058 17.208C225.25 17.5067 225.346 17.9013 225.346 18.392C225.346 18.9253 225.186 19.4 224.866 19.816C224.546 20.2213 224.082 20.5413 223.474 20.776C222.877 21.0107 222.146 21.128 221.282 21.128ZM226.886 21V12.392H229.382V21H226.886ZM228.134 11.192C227.676 11.192 227.302 11.0587 227.014 10.792C226.726 10.5253 226.582 10.1947 226.582 9.8C226.582 9.40533 226.726 9.07467 227.014 8.808C227.302 8.54133 227.676 8.408 228.134 8.408C228.593 8.408 228.966 8.536 229.254 8.792C229.542 9.03733 229.686 9.35733 229.686 9.752C229.686 10.168 229.542 10.5147 229.254 10.792C228.977 11.0587 228.604 11.192 228.134 11.192ZM235.747 24.232C234.936 24.232 234.152 24.1307 233.395 23.928C232.648 23.736 232.024 23.4427 231.523 23.048L232.515 21.256C232.878 21.5547 233.336 21.7893 233.891 21.96C234.456 22.1413 235.011 22.232 235.555 22.232C236.44 22.232 237.08 22.0347 237.475 21.64C237.88 21.2453 238.083 20.6587 238.083 19.88V18.584L238.243 16.424L238.211 14.248V12.392H240.579V19.56C240.579 21.16 240.163 22.3387 239.331 23.096C238.499 23.8533 237.304 24.232 235.747 24.232ZM235.363 20.584C234.563 20.584 233.838 20.4133 233.187 20.072C232.547 19.72 232.03 19.2347 231.635 18.616C231.251 17.9867 231.059 17.256 231.059 16.424C231.059 15.5813 231.251 14.8507 231.635 14.232C232.03 13.6027 232.547 13.1173 233.187 12.776C233.838 12.4347 234.563 12.264 235.363 12.264C236.088 12.264 236.728 12.4133 237.283 12.712C237.838 13 238.27 13.4533 238.579 14.072C238.888 14.68 239.043 15.464 239.043 16.424C239.043 17.3733 238.888 18.1573 238.579 18.776C238.27 19.384 237.838 19.8373 237.283 20.136C236.728 20.4347 236.088 20.584 235.363 20.584ZM235.859 18.536C236.296 18.536 236.686 18.4507 237.027 18.28C237.368 18.0987 237.635 17.848 237.827 17.528C238.019 17.208 238.115 16.84 238.115 16.424C238.115 15.9973 238.019 15.6293 237.827 15.32C237.635 15 237.368 14.7547 237.027 14.584C236.686 14.4027 236.296 14.312 235.859 14.312C235.422 14.312 235.032 14.4027 234.691 14.584C234.35 14.7547 234.078 15 233.875 15.32C233.683 15.6293 233.587 15.9973 233.587 16.424C233.587 16.84 233.683 17.208 233.875 17.528C234.078 17.848 234.35 18.0987 234.691 18.28C235.032 18.4507 235.422 18.536 235.859 18.536ZM248.134 12.264C248.817 12.264 249.425 12.4027 249.958 12.68C250.502 12.9467 250.929 13.3627 251.238 13.928C251.547 14.4827 251.702 15.1973 251.702 16.072V21H249.206V16.456C249.206 15.7627 249.051 15.2507 248.742 14.92C248.443 14.5893 248.017 14.424 247.462 14.424C247.067 14.424 246.71 14.5093 246.39 14.68C246.081 14.84 245.835 15.0907 245.654 15.432C245.483 15.7733 245.398 16.2107 245.398 16.744V21H242.902V12.392H245.286V14.776L244.838 14.056C245.147 13.48 245.59 13.0373 246.166 12.728C246.742 12.4187 247.398 12.264 248.134 12.264Z" fill="#303741"/>
</svg>
