<svg width="253" height="18" viewBox="0 0 253 18" fill="none" xmlns="http://www.w3.org/2000/svg">
<path d="M6.90006 14.128C6.03606 14.128 5.2414 13.9893 4.51606 13.712C3.79073 13.424 3.1614 13.024 2.62806 12.512C2.09473 11.9893 1.67873 11.3813 1.38006 10.688C1.0814 9.99467 0.932063 9.232 0.932063 8.4C0.932063 7.568 1.0814 6.80533 1.38006 6.112C1.67873 5.41867 2.09473 4.816 2.62806 4.304C3.17206 3.78133 3.80673 3.38133 4.53206 3.104C5.2574 2.816 6.0574 2.672 6.93206 2.672C7.8174 2.672 8.62806 2.816 9.36406 3.104C10.1001 3.392 10.7241 3.824 11.2361 4.4L10.2441 5.392C9.7854 4.944 9.28406 4.61867 8.74006 4.416C8.20673 4.20267 7.6254 4.096 6.99606 4.096C6.35606 4.096 5.75873 4.20267 5.20406 4.416C4.66006 4.62933 4.1854 4.928 3.78006 5.312C3.3854 5.696 3.07606 6.15467 2.85206 6.688C2.63873 7.21067 2.53206 7.78133 2.53206 8.4C2.53206 9.008 2.63873 9.57867 2.85206 10.112C3.07606 10.6347 3.3854 11.0933 3.78006 11.488C4.1854 11.872 4.66006 12.1707 5.20406 12.384C5.74806 12.5973 6.34006 12.704 6.98006 12.704C7.5774 12.704 8.14806 12.6133 8.69206 12.432C9.24673 12.24 9.75873 11.9253 10.2281 11.488L11.1401 12.704C10.5854 13.1733 9.93473 13.5307 9.18806 13.776C8.45206 14.0107 7.6894 14.128 6.90006 14.128ZM9.60406 12.496V8.336H11.1401V12.704L9.60406 12.496ZM17.6114 14.096C16.7581 14.096 16.0008 13.9093 15.3394 13.536C14.6781 13.1627 14.1554 12.6507 13.7714 12C13.3874 11.3387 13.1954 10.592 13.1954 9.76C13.1954 8.91733 13.3874 8.17067 13.7714 7.52C14.1554 6.86933 14.6781 6.36267 15.3394 6C16.0008 5.62667 16.7581 5.44 17.6114 5.44C18.4541 5.44 19.2061 5.62667 19.8674 6C20.5394 6.36267 21.0621 6.86933 21.4354 7.52C21.8194 8.16 22.0114 8.90667 22.0114 9.76C22.0114 10.6027 21.8194 11.3493 21.4354 12C21.0621 12.6507 20.5394 13.1627 19.8674 13.536C19.2061 13.9093 18.4541 14.096 17.6114 14.096ZM17.6114 12.752C18.1554 12.752 18.6408 12.6293 19.0674 12.384C19.5048 12.1387 19.8461 11.792 20.0914 11.344C20.3368 10.8853 20.4594 10.3573 20.4594 9.76C20.4594 9.152 20.3368 8.62933 20.0914 8.192C19.8461 7.744 19.5048 7.39733 19.0674 7.152C18.6408 6.90667 18.1554 6.784 17.6114 6.784C17.0674 6.784 16.5821 6.90667 16.1554 7.152C15.7288 7.39733 15.3874 7.744 15.1314 8.192C14.8754 8.62933 14.7474 9.152 14.7474 9.76C14.7474 10.3573 14.8754 10.8853 15.1314 11.344C15.3874 11.792 15.7288 12.1387 16.1554 12.384C16.5821 12.6293 17.0674 12.752 17.6114 12.752ZM28.6637 5.44C29.357 5.44 29.965 5.57333 30.4877 5.84C31.021 6.10667 31.437 6.512 31.7357 7.056C32.0344 7.6 32.1837 8.288 32.1837 9.12V14H30.6477V9.296C30.6477 8.47467 30.445 7.856 30.0397 7.44C29.645 7.024 29.085 6.816 28.3597 6.816C27.8157 6.816 27.341 6.92267 26.9357 7.136C26.5304 7.34933 26.2157 7.664 25.9917 8.08C25.7784 8.496 25.6717 9.01333 25.6717 9.632V14H24.1357V5.52H25.6077V7.808L25.3677 7.2C25.645 6.64533 26.0717 6.21333 26.6477 5.904C27.2237 5.59467 27.8957 5.44 28.6637 5.44ZM38.7223 14.096C37.8583 14.096 37.085 13.9093 36.4023 13.536C35.7303 13.1627 35.2023 12.6507 34.8183 12C34.4343 11.3493 34.2423 10.6027 34.2423 9.76C34.2423 8.91733 34.4343 8.17067 34.8183 7.52C35.2023 6.86933 35.7303 6.36267 36.4023 6C37.085 5.62667 37.8583 5.44 38.7223 5.44C39.4903 5.44 40.173 5.59467 40.7703 5.904C41.3783 6.20267 41.8476 6.65067 42.1783 7.248L41.0103 8C40.733 7.584 40.3916 7.28 39.9863 7.088C39.5916 6.88533 39.165 6.784 38.7063 6.784C38.1516 6.784 37.6556 6.90667 37.2183 7.152C36.781 7.39733 36.4343 7.744 36.1783 8.192C35.9223 8.62933 35.7943 9.152 35.7943 9.76C35.7943 10.368 35.9223 10.896 36.1783 11.344C36.4343 11.792 36.781 12.1387 37.2183 12.384C37.6556 12.6293 38.1516 12.752 38.7063 12.752C39.165 12.752 39.5916 12.656 39.9863 12.464C40.3916 12.2613 40.733 11.952 41.0103 11.536L42.1783 12.272C41.8476 12.8587 41.3783 13.312 40.7703 13.632C40.173 13.9413 39.4903 14.096 38.7223 14.096ZM37.9703 17.584C37.693 17.584 37.437 17.552 37.2023 17.488C36.9676 17.4347 36.749 17.3493 36.5463 17.232L36.8823 16.448C37.053 16.544 37.2236 16.6133 37.3943 16.656C37.5756 16.6987 37.7676 16.72 37.9703 16.72C38.2796 16.72 38.5036 16.6613 38.6423 16.544C38.7916 16.4373 38.8663 16.2827 38.8663 16.08C38.8663 15.888 38.7916 15.7333 38.6423 15.616C38.5036 15.5093 38.2743 15.456 37.9543 15.456H37.5223L37.9223 13.888H38.8023L38.5623 14.8C39.021 14.8427 39.3676 14.9867 39.6023 15.232C39.837 15.4773 39.9543 15.776 39.9543 16.128C39.9543 16.576 39.773 16.928 39.4103 17.184C39.0476 17.4507 38.5676 17.584 37.9703 17.584ZM49.4309 14V12.208L49.3509 11.872V8.816C49.3509 8.16533 49.1589 7.664 48.7749 7.312C48.4016 6.94933 47.8363 6.768 47.0789 6.768C46.5776 6.768 46.0869 6.85333 45.6069 7.024C45.1269 7.184 44.7216 7.40267 44.3909 7.68L43.7509 6.528C44.1883 6.176 44.7109 5.90933 45.3189 5.728C45.9376 5.536 46.5829 5.44 47.2549 5.44C48.4176 5.44 49.3136 5.72267 49.9429 6.288C50.5723 6.85333 50.8869 7.71733 50.8869 8.88V14H49.4309ZM46.6469 14.096C46.0176 14.096 45.4629 13.9893 44.9829 13.776C44.5136 13.5627 44.1509 13.2693 43.8949 12.896C43.6389 12.512 43.5109 12.08 43.5109 11.6C43.5109 11.1413 43.6176 10.7253 43.8309 10.352C44.0549 9.97867 44.4123 9.68 44.9029 9.456C45.4043 9.232 46.0763 9.12 46.9189 9.12H49.6069V10.224H46.9829C46.2149 10.224 45.6976 10.352 45.4309 10.608C45.1643 10.864 45.0309 11.1733 45.0309 11.536C45.0309 11.952 45.1963 12.288 45.5269 12.544C45.8576 12.7893 46.3163 12.912 46.9029 12.912C47.4789 12.912 47.9803 12.784 48.4069 12.528C48.8443 12.272 49.1589 11.8987 49.3509 11.408L49.6549 12.464C49.4523 12.9653 49.0949 13.3653 48.5829 13.664C48.0709 13.952 47.4256 14.096 46.6469 14.096ZM53.7294 14V2.128H55.2654V14H53.7294ZM61.8302 14.096C60.9769 14.096 60.2195 13.9093 59.5582 13.536C58.8969 13.1627 58.3742 12.6507 57.9902 12C57.6062 11.3387 57.4142 10.592 57.4142 9.76C57.4142 8.91733 57.6062 8.17067 57.9902 7.52C58.3742 6.86933 58.8969 6.36267 59.5582 6C60.2195 5.62667 60.9769 5.44 61.8302 5.44C62.6729 5.44 63.4249 5.62667 64.0862 6C64.7582 6.36267 65.2809 6.86933 65.6542 7.52C66.0382 8.16 66.2302 8.90667 66.2302 9.76C66.2302 10.6027 66.0382 11.3493 65.6542 12C65.2809 12.6507 64.7582 13.1627 64.0862 13.536C63.4249 13.9093 62.6729 14.096 61.8302 14.096ZM61.8302 12.752C62.3742 12.752 62.8595 12.6293 63.2862 12.384C63.7235 12.1387 64.0649 11.792 64.3102 11.344C64.5555 10.8853 64.6782 10.3573 64.6782 9.76C64.6782 9.152 64.5555 8.62933 64.3102 8.192C64.0649 7.744 63.7235 7.39733 63.2862 7.152C62.8595 6.90667 62.3742 6.784 61.8302 6.784C61.2862 6.784 60.8009 6.90667 60.3742 7.152C59.9475 7.39733 59.6062 7.744 59.3502 8.192C59.0942 8.62933 58.9662 9.152 58.9662 9.76C58.9662 10.3573 59.0942 10.8853 59.3502 11.344C59.6062 11.792 59.9475 12.1387 60.3742 12.384C60.8009 12.6293 61.2862 12.752 61.8302 12.752ZM72.8753 14V2.8H74.1873L79.2113 11.264H78.5073L83.4673 2.8H84.7793L84.7953 14H83.2593L83.2433 5.216H83.6113L79.1953 12.64H78.4593L74.0113 5.216H74.4113V14H72.8753ZM93.1966 14V12.208L93.1166 11.872V8.816C93.1166 8.16533 92.9246 7.664 92.5406 7.312C92.1672 6.94933 91.6019 6.768 90.8446 6.768C90.3432 6.768 89.8526 6.85333 89.3726 7.024C88.8926 7.184 88.4872 7.40267 88.1566 7.68L87.5166 6.528C87.9539 6.176 88.4766 5.90933 89.0846 5.728C89.7032 5.536 90.3486 5.44 91.0206 5.44C92.1832 5.44 93.0792 5.72267 93.7086 6.288C94.3379 6.85333 94.6526 7.71733 94.6526 8.88V14H93.1966ZM90.4126 14.096C89.7832 14.096 89.2286 13.9893 88.7486 13.776C88.2792 13.5627 87.9166 13.2693 87.6606 12.896C87.4046 12.512 87.2766 12.08 87.2766 11.6C87.2766 11.1413 87.3832 10.7253 87.5966 10.352C87.8206 9.97867 88.1779 9.68 88.6686 9.456C89.1699 9.232 89.8419 9.12 90.6846 9.12H93.3726V10.224H90.7486C89.9806 10.224 89.4632 10.352 89.1966 10.608C88.9299 10.864 88.7966 11.1733 88.7966 11.536C88.7966 11.952 88.9619 12.288 89.2926 12.544C89.6232 12.7893 90.0819 12.912 90.6686 12.912C91.2446 12.912 91.7459 12.784 92.1726 12.528C92.6099 12.272 92.9246 11.8987 93.1166 11.408L93.4206 12.464C93.2179 12.9653 92.8606 13.3653 92.3486 13.664C91.8366 13.952 91.1912 14.096 90.4126 14.096ZM97.4951 14V5.52H98.9671V7.824L98.8231 7.248C99.0577 6.66133 99.4524 6.21333 100.007 5.904C100.562 5.59467 101.244 5.44 102.055 5.44V6.928C101.991 6.91733 101.927 6.912 101.863 6.912C101.81 6.912 101.756 6.912 101.703 6.912C100.882 6.912 100.231 7.15733 99.7511 7.648C99.2711 8.13867 99.0311 8.848 99.0311 9.776V14H97.4951ZM107.204 14.096C106.351 14.096 105.689 13.8667 105.22 13.408C104.751 12.9493 104.516 12.2933 104.516 11.44V3.664H106.052V11.376C106.052 11.8347 106.164 12.1867 106.388 12.432C106.623 12.6773 106.953 12.8 107.38 12.8C107.86 12.8 108.26 12.6667 108.58 12.4L109.06 13.504C108.825 13.7067 108.543 13.856 108.212 13.952C107.892 14.048 107.556 14.096 107.204 14.096ZM103.076 6.784V5.52H108.484V6.784H103.076ZM110.917 14V5.52H112.453V14H110.917ZM111.685 3.888C111.386 3.888 111.136 3.792 110.933 3.6C110.741 3.408 110.645 3.17333 110.645 2.896C110.645 2.608 110.741 2.368 110.933 2.176C111.136 1.984 111.386 1.888 111.685 1.888C111.984 1.888 112.229 1.984 112.421 2.176C112.624 2.35733 112.725 2.58667 112.725 2.864C112.725 3.152 112.629 3.39733 112.437 3.6C112.245 3.792 111.994 3.888 111.685 3.888ZM119.914 5.44C120.607 5.44 121.215 5.57333 121.738 5.84C122.271 6.10667 122.687 6.512 122.986 7.056C123.284 7.6 123.434 8.288 123.434 9.12V14H121.898V9.296C121.898 8.47467 121.695 7.856 121.29 7.44C120.895 7.024 120.335 6.816 119.61 6.816C119.066 6.816 118.591 6.92267 118.186 7.136C117.78 7.34933 117.466 7.664 117.242 8.08C117.028 8.496 116.922 9.01333 116.922 9.632V14H115.386V5.52H116.858V7.808L116.618 7.2C116.895 6.64533 117.322 6.21333 117.898 5.904C118.474 5.59467 119.146 5.44 119.914 5.44ZM128.708 14.096C128.004 14.096 127.332 14 126.692 13.808C126.063 13.616 125.567 13.3813 125.204 13.104L125.844 11.888C126.207 12.1333 126.655 12.3413 127.188 12.512C127.722 12.6827 128.266 12.768 128.82 12.768C129.535 12.768 130.047 12.6667 130.356 12.464C130.676 12.2613 130.836 11.9787 130.836 11.616C130.836 11.3493 130.74 11.1413 130.548 10.992C130.356 10.8427 130.1 10.7307 129.78 10.656C129.471 10.5813 129.124 10.5173 128.74 10.464C128.356 10.4 127.972 10.3253 127.588 10.24C127.204 10.144 126.852 10.016 126.532 9.856C126.212 9.68533 125.956 9.456 125.764 9.168C125.572 8.86933 125.476 8.47467 125.476 7.984C125.476 7.472 125.62 7.024 125.908 6.64C126.196 6.256 126.602 5.96267 127.124 5.76C127.658 5.54667 128.287 5.44 129.012 5.44C129.567 5.44 130.127 5.50933 130.692 5.648C131.268 5.776 131.738 5.96267 132.1 6.208L131.444 7.424C131.06 7.168 130.66 6.992 130.244 6.896C129.828 6.8 129.412 6.752 128.996 6.752C128.324 6.752 127.823 6.864 127.492 7.088C127.162 7.30133 126.996 7.57867 126.996 7.92C126.996 8.208 127.092 8.432 127.284 8.592C127.487 8.74133 127.743 8.85867 128.052 8.944C128.372 9.02933 128.724 9.104 129.108 9.168C129.492 9.22133 129.876 9.296 130.26 9.392C130.644 9.47733 130.991 9.6 131.3 9.76C131.62 9.92 131.876 10.144 132.068 10.432C132.271 10.72 132.372 11.104 132.372 11.584C132.372 12.096 132.223 12.5387 131.924 12.912C131.626 13.2853 131.204 13.5787 130.66 13.792C130.116 13.9947 129.466 14.096 128.708 14.096Z" fill="#303741"/>
<path d="M147.492 14.192C145.902 14.192 144.66 13.7493 143.764 12.864C142.868 11.9787 142.42 10.7147 142.42 9.072V2.8H145.012V8.976C145.012 10.0427 145.23 10.8107 145.668 11.28C146.105 11.7493 146.718 11.984 147.508 11.984C148.297 11.984 148.91 11.7493 149.348 11.28C149.785 10.8107 150.003 10.0427 150.003 8.976V2.8H152.564V9.072C152.564 10.7147 152.116 11.9787 151.22 12.864C150.324 13.7493 149.081 14.192 147.492 14.192ZM153.689 14L158.505 7.36V9.248L153.897 2.8H156.841L160.025 7.296L158.793 7.312L161.929 2.8H164.745L160.169 9.136V7.28L165.017 14H162.025L158.729 9.248H159.913L156.665 14H153.689ZM164.738 15.6L170.018 0.527999H172.242L166.962 15.6H164.738ZM177.835 14.192C176.246 14.192 175.003 13.7493 174.107 12.864C173.211 11.9787 172.763 10.7147 172.763 9.072V2.8H175.355V8.976C175.355 10.0427 175.574 10.8107 176.011 11.28C176.449 11.7493 177.062 11.984 177.851 11.984C178.641 11.984 179.254 11.7493 179.691 11.28C180.129 10.8107 180.347 10.0427 180.347 8.976V2.8H182.907V9.072C182.907 10.7147 182.459 11.9787 181.563 12.864C180.667 13.7493 179.425 14.192 177.835 14.192ZM185.469 14V2.8H188.061V14H185.469ZM195.25 14V2.8H200.338C201.554 2.8 202.626 3.03467 203.554 3.504C204.482 3.96267 205.207 4.608 205.73 5.44C206.253 6.272 206.514 7.25867 206.514 8.4C206.514 9.53067 206.253 10.5173 205.73 11.36C205.207 12.192 204.482 12.8427 203.554 13.312C202.626 13.7707 201.554 14 200.338 14H195.25ZM197.842 11.872H200.21C200.957 11.872 201.602 11.7333 202.146 11.456C202.701 11.168 203.127 10.7627 203.426 10.24C203.735 9.71733 203.89 9.104 203.89 8.4C203.89 7.68533 203.735 7.072 203.426 6.56C203.127 6.03733 202.701 5.63733 202.146 5.36C201.602 5.072 200.957 4.928 200.21 4.928H197.842V11.872ZM212.565 14.128C211.583 14.128 210.719 13.936 209.973 13.552C209.237 13.168 208.666 12.6453 208.261 11.984C207.855 11.312 207.653 10.5493 207.653 9.696C207.653 8.832 207.85 8.06933 208.245 7.408C208.65 6.736 209.199 6.21333 209.893 5.84C210.586 5.456 211.37 5.264 212.245 5.264C213.087 5.264 213.845 5.44533 214.517 5.808C215.199 6.16 215.738 6.672 216.133 7.344C216.527 8.00533 216.725 8.8 216.725 9.728C216.725 9.824 216.719 9.936 216.709 10.064C216.698 10.1813 216.687 10.2933 216.677 10.4H209.685V8.944H215.365L214.405 9.376C214.405 8.928 214.314 8.53867 214.133 8.208C213.951 7.87733 213.701 7.62133 213.381 7.44C213.061 7.248 212.687 7.152 212.261 7.152C211.834 7.152 211.455 7.248 211.125 7.44C210.805 7.62133 210.554 7.88267 210.373 8.224C210.191 8.55467 210.101 8.94933 210.101 9.408V9.792C210.101 10.2613 210.202 10.6773 210.405 11.04C210.618 11.392 210.911 11.664 211.285 11.856C211.669 12.0373 212.117 12.128 212.629 12.128C213.087 12.128 213.487 12.0587 213.829 11.92C214.181 11.7813 214.501 11.5733 214.789 11.296L216.117 12.736C215.722 13.184 215.226 13.5307 214.629 13.776C214.031 14.0107 213.343 14.128 212.565 14.128ZM221.282 14.128C220.546 14.128 219.837 14.0427 219.154 13.872C218.482 13.6907 217.949 13.4667 217.554 13.2L218.386 11.408C218.781 11.6533 219.245 11.856 219.778 12.016C220.322 12.1653 220.856 12.24 221.378 12.24C221.954 12.24 222.36 12.1707 222.594 12.032C222.84 11.8933 222.962 11.7013 222.962 11.456C222.962 11.2533 222.866 11.104 222.674 11.008C222.493 10.9013 222.248 10.8213 221.938 10.768C221.629 10.7147 221.288 10.6613 220.914 10.608C220.552 10.5547 220.184 10.4853 219.81 10.4C219.437 10.304 219.096 10.1653 218.786 9.984C218.477 9.80267 218.226 9.55733 218.034 9.248C217.853 8.93867 217.762 8.53867 217.762 8.048C217.762 7.504 217.917 7.024 218.226 6.608C218.546 6.192 219.005 5.86667 219.602 5.632C220.2 5.38667 220.914 5.264 221.746 5.264C222.333 5.264 222.93 5.328 223.538 5.456C224.146 5.584 224.653 5.77067 225.058 6.016L224.226 7.792C223.81 7.54667 223.389 7.38133 222.962 7.296C222.546 7.2 222.141 7.152 221.746 7.152C221.192 7.152 220.786 7.22667 220.53 7.376C220.274 7.52533 220.146 7.71733 220.146 7.952C220.146 8.16533 220.237 8.32533 220.418 8.432C220.61 8.53867 220.861 8.624 221.17 8.688C221.48 8.752 221.816 8.81067 222.178 8.864C222.552 8.90667 222.925 8.976 223.298 9.072C223.672 9.168 224.008 9.30667 224.306 9.488C224.616 9.65867 224.866 9.89867 225.058 10.208C225.25 10.5067 225.346 10.9013 225.346 11.392C225.346 11.9253 225.186 12.4 224.866 12.816C224.546 13.2213 224.082 13.5413 223.474 13.776C222.877 14.0107 222.146 14.128 221.282 14.128ZM226.886 14V5.392H229.382V14H226.886ZM228.134 4.192C227.676 4.192 227.302 4.05867 227.014 3.792C226.726 3.52533 226.582 3.19467 226.582 2.8C226.582 2.40533 226.726 2.07467 227.014 1.808C227.302 1.54133 227.676 1.408 228.134 1.408C228.593 1.408 228.966 1.536 229.254 1.792C229.542 2.03733 229.686 2.35733 229.686 2.752C229.686 3.168 229.542 3.51467 229.254 3.792C228.977 4.05867 228.604 4.192 228.134 4.192ZM235.747 17.232C234.936 17.232 234.152 17.1307 233.395 16.928C232.648 16.736 232.024 16.4427 231.523 16.048L232.515 14.256C232.878 14.5547 233.336 14.7893 233.891 14.96C234.456 15.1413 235.011 15.232 235.555 15.232C236.44 15.232 237.08 15.0347 237.475 14.64C237.88 14.2453 238.083 13.6587 238.083 12.88V11.584L238.243 9.424L238.211 7.248V5.392H240.579V12.56C240.579 14.16 240.163 15.3387 239.331 16.096C238.499 16.8533 237.304 17.232 235.747 17.232ZM235.363 13.584C234.563 13.584 233.838 13.4133 233.187 13.072C232.547 12.72 232.03 12.2347 231.635 11.616C231.251 10.9867 231.059 10.256 231.059 9.424C231.059 8.58133 231.251 7.85067 231.635 7.232C232.03 6.60267 232.547 6.11733 233.187 5.776C233.838 5.43467 234.563 5.264 235.363 5.264C236.088 5.264 236.728 5.41333 237.283 5.712C237.838 6 238.27 6.45333 238.579 7.072C238.888 7.68 239.043 8.464 239.043 9.424C239.043 10.3733 238.888 11.1573 238.579 11.776C238.27 12.384 237.838 12.8373 237.283 13.136C236.728 13.4347 236.088 13.584 235.363 13.584ZM235.859 11.536C236.296 11.536 236.686 11.4507 237.027 11.28C237.368 11.0987 237.635 10.848 237.827 10.528C238.019 10.208 238.115 9.84 238.115 9.424C238.115 8.99733 238.019 8.62933 237.827 8.32C237.635 8 237.368 7.75467 237.027 7.584C236.686 7.40267 236.296 7.312 235.859 7.312C235.422 7.312 235.032 7.40267 234.691 7.584C234.35 7.75467 234.078 8 233.875 8.32C233.683 8.62933 233.587 8.99733 233.587 9.424C233.587 9.84 233.683 10.208 233.875 10.528C234.078 10.848 234.35 11.0987 234.691 11.28C235.032 11.4507 235.422 11.536 235.859 11.536ZM248.134 5.264C248.817 5.264 249.425 5.40267 249.958 5.68C250.502 5.94667 250.929 6.36267 251.238 6.928C251.547 7.48267 251.702 8.19733 251.702 9.072V14H249.206V9.456C249.206 8.76267 249.051 8.25067 248.742 7.92C248.443 7.58933 248.017 7.424 247.462 7.424C247.067 7.424 246.71 7.50933 246.39 7.68C246.081 7.84 245.835 8.09067 245.654 8.432C245.483 8.77333 245.398 9.21067 245.398 9.744V14H242.902V5.392H245.286V7.776L244.838 7.056C245.147 6.48 245.59 6.03733 246.166 5.728C246.742 5.41867 247.398 5.264 248.134 5.264Z" fill="#303741"/>
</svg>
