<svg width="96" height="72" viewBox="0 0 96 72" fill="none" xmlns="http://www.w3.org/2000/svg">
<g opacity="0.75" clip-path="url(#clip0_1916_42917)">
<rect width="42" height="72" fill="#2B9F5A"/>
<rect x="42" width="54" height="72" fill="#DC251C"/>
<circle cx="42" cy="36" r="16.5" stroke="#FFD018" stroke-width="3"/>
<path d="M30 30C30 26.6863 32.6863 24 36 24H48C51.3137 24 54 26.6863 54 30V36C54 42.6274 48.6274 48 42 48V48C35.3726 48 30 42.6274 30 36V30Z" fill="#DC251C"/>
<path d="M36 30H48V36C48 39.3137 45.3137 42 42 42V42C38.6863 42 36 39.3137 36 36V30Z" fill="#F5F8FB"/>
</g>
<defs>
<clipPath id="clip0_1916_42917">
<rect width="96" height="72" fill="white"/>
</clipPath>
</defs>
</svg>
