<svg width="40" height="40" viewBox="0 0 40 40" fill="none" xmlns="http://www.w3.org/2000/svg">
<circle cx="19.9843" cy="19.9843" r="19.9843" fill="#575F64"/>
<g clip-path="url(#clip0_1711_41987)">
<path d="M15.7832 13.4888C16.3262 13.4888 16.8691 13.5406 17.3861 13.6441C17.8256 13.7477 18.2393 13.929 18.6271 14.1879C18.9632 14.4468 19.2475 14.7834 19.4285 15.1718C19.6353 15.6638 19.7387 16.1817 19.7129 16.6995C19.7387 17.2692 19.5836 17.8388 19.2992 18.3308C18.989 18.7969 18.5495 19.1594 18.0583 19.3924C18.7563 19.5737 19.351 20.0139 19.7387 20.5835C20.1265 21.2049 20.3075 21.9299 20.3075 22.655C20.3075 23.2505 20.2041 23.8201 19.9456 24.338C19.7129 24.8041 19.3768 25.1925 18.989 25.5291C18.5754 25.8398 18.0842 26.0729 17.593 26.2023C17.0759 26.3577 16.533 26.4095 15.9901 26.4095H9.99219V13.4629H15.7832V13.4888ZM15.4213 18.7192C15.835 18.7451 16.2745 18.6156 16.6105 18.3567C16.9466 18.0719 17.1276 17.6317 17.0759 17.1656C17.0759 16.9067 17.0242 16.6477 16.9208 16.4147C16.8174 16.2335 16.6881 16.0781 16.5071 15.9745C16.3262 15.871 16.1193 15.7674 15.9125 15.7415C15.6798 15.6897 15.4472 15.6897 15.2145 15.6897H12.6809V18.7192H15.4213ZM15.5764 24.2603C15.835 24.2603 16.0935 24.2344 16.3262 24.1827C16.5588 24.1309 16.7657 24.0273 16.9725 23.8978C17.1535 23.7684 17.3086 23.5871 17.412 23.38C17.5412 23.121 17.593 22.8362 17.5671 22.5514C17.6188 22.0076 17.412 21.4898 17.0242 21.1273C16.6105 20.8165 16.1193 20.6871 15.6023 20.713H12.6809V24.2862H15.5764V24.2603Z" fill="#D5DFE8"/>
<path d="M24.1331 24.2087C24.5726 24.5971 25.1414 24.8042 25.7101 24.7783C26.1755 24.7783 26.615 24.6489 26.9769 24.3899C27.2872 24.1828 27.494 23.8979 27.6233 23.5613H29.7691C29.5364 24.5194 28.9676 25.3739 28.192 25.9694C27.4423 26.4873 26.5374 26.7203 25.6067 26.6944C24.9604 26.6944 24.3141 26.5908 23.6936 26.3319C23.1507 26.0989 22.6595 25.7623 22.2717 25.3221C21.8839 24.856 21.5737 24.3381 21.3668 23.7685C21.1342 23.1212 21.0308 22.4479 21.0566 21.7747C21.0566 21.1015 21.16 20.4542 21.3927 19.8068C22.0132 17.9943 23.7195 16.7773 25.6326 16.8032C26.3306 16.7773 27.0028 16.9586 27.6233 17.2693C28.1662 17.58 28.6574 17.9943 29.0193 18.5122C29.3813 19.0559 29.6656 19.6515 29.7949 20.2988C29.95 20.972 30.0017 21.697 29.9759 22.3961H23.5643C23.4868 23.0435 23.6936 23.6908 24.1331 24.2087ZM26.9252 19.2631C26.5633 18.9006 26.0721 18.7193 25.555 18.7452C25.2189 18.7452 24.8828 18.797 24.5985 18.9524C24.3658 19.0818 24.159 19.2631 23.978 19.4702C23.8229 19.6774 23.7195 19.8845 23.6419 20.1434C23.5902 20.3506 23.5385 20.5577 23.5385 20.7649H27.5198C27.4681 20.2211 27.2613 19.7033 26.9252 19.2631Z" fill="#D5DFE8"/>
<path d="M27.9852 14.3428H23.0215V15.6115H27.9852V14.3428Z" fill="#D5DFE8"/>
</g>
<defs>
<clipPath id="clip0_1711_41987">
<rect width="19.9843" height="13.2055" fill="white" transform="translate(9.99219 13.4893)"/>
</clipPath>
</defs>
</svg>
