<svg width="41" height="40" viewBox="0 0 41 40" fill="none" xmlns="http://www.w3.org/2000/svg">
<circle cx="20.9531" cy="19.9843" r="19.9843" fill="#575F64"/>
<g clip-path="url(#clip0_1711_41994)">
<path fill-rule="evenodd" clip-rule="evenodd" d="M20.9531 9.99219C15.4368 9.99219 10.9609 14.4681 10.9609 19.9844C10.9609 25.5006 15.4368 29.9765 20.9531 29.9765C26.4585 29.9765 30.9453 25.5006 30.9453 19.9844C30.9453 14.4681 26.4585 9.99219 20.9531 9.99219ZM27.5531 14.5981C28.7452 16.0503 29.4605 17.9036 29.4822 19.9085C29.2004 19.8543 26.3827 19.2799 23.5433 19.6375C23.4782 19.4967 23.424 19.3449 23.359 19.1932C23.1856 18.7814 22.9905 18.3587 22.7955 17.9577C25.9384 16.6789 27.3689 14.8365 27.5531 14.5981ZM20.9531 11.4661C23.1206 11.4661 25.1039 12.2789 26.6103 13.6119C26.4585 13.8287 25.1689 15.5518 22.1344 16.6898C20.7364 14.1213 19.1866 12.0188 18.9482 11.6937C19.5876 11.5419 20.2595 11.4661 20.9531 11.4661ZM17.3225 12.2681C17.5501 12.5715 19.0674 14.6848 20.4871 17.1991C16.4989 18.2612 12.9767 18.2395 12.5974 18.2395C13.1501 15.5952 14.9383 13.3952 17.3225 12.2681ZM12.4132 19.9952C12.4132 19.9085 12.4132 19.8218 12.4132 19.7351C12.7816 19.7459 16.9216 19.8001 21.1807 18.5213C21.4299 18.9981 21.6575 19.4858 21.8743 19.9735C21.7659 20.006 21.6467 20.0385 21.5383 20.071C17.1383 21.4908 14.7974 25.3706 14.6023 25.6957C13.2476 24.1893 12.4132 22.1844 12.4132 19.9952ZM20.9531 28.5243C18.9807 28.5243 17.16 27.8524 15.7186 26.7253C15.8703 26.411 17.6043 23.073 22.4162 21.3932C22.4378 21.3824 22.4487 21.3824 22.4704 21.3715C23.6733 24.4819 24.161 27.0937 24.291 27.8415C23.2615 28.2859 22.1344 28.5243 20.9531 28.5243ZM25.7108 27.0612C25.6241 26.541 25.1689 24.0484 24.0526 20.9814C26.7295 20.5587 29.0704 21.2523 29.363 21.3499C28.9945 23.7233 27.629 25.7716 25.7108 27.0612Z" fill="#D5DFE8"/>
</g>
<defs>
<clipPath id="clip0_1711_41994">
<rect width="19.9843" height="19.9843" fill="white" transform="translate(10.9609 9.99219)"/>
</clipPath>
</defs>
</svg>
