<svg width="40" height="40" viewBox="0 0 40 40" fill="none" xmlns="http://www.w3.org/2000/svg">
<circle cx="20.0156" cy="19.9843" r="19.9843" fill="#575F64"/>
<rect x="9.35938" y="10.0303" width="20.8982" height="20.0866" fill="#D5DFE8"/>
<path d="M28.9523 28.7048H25.1392V22.7923C25.1392 21.3824 25.1138 19.5674 23.1561 19.5674C21.1701 19.5674 20.8663 21.1035 20.8663 22.6896V28.7044H17.0532V16.5458H20.7137V18.2074H20.765C21.1313 17.5873 21.6607 17.0771 22.2967 16.7312C22.9327 16.3853 23.6515 16.2168 24.3766 16.2434C28.2413 16.2434 28.9539 18.7604 28.9539 22.0348L28.9523 28.7048ZM12.7509 14.8839C12.3132 14.8839 11.8854 14.7555 11.5215 14.5148C11.1575 14.2742 10.8739 13.932 10.7063 13.5317C10.5388 13.1314 10.4949 12.6909 10.5802 12.2659C10.6655 11.8408 10.8762 11.4504 11.1856 11.1439C11.495 10.8375 11.8892 10.6287 12.3184 10.5441C12.7476 10.4595 13.1925 10.5028 13.5969 10.6686C14.0013 10.8343 14.3469 11.1151 14.5901 11.4753C14.8333 11.8356 14.9632 12.2592 14.9632 12.6925C14.9633 12.9802 14.9061 13.2651 14.7949 13.531C14.6838 13.7968 14.5209 14.0384 14.3154 14.2419C14.11 14.4453 13.8661 14.6068 13.5976 14.7169C13.3292 14.8271 13.0415 14.8838 12.7509 14.8839ZM14.6574 28.7048H10.8404V16.5458H14.6574V28.7048ZM30.8532 6.99588H8.92436C8.42664 6.99032 7.94702 7.18064 7.59095 7.52502C7.23487 7.8694 7.03147 8.33967 7.02539 8.83248V30.6354C7.03126 31.1285 7.23454 31.5991 7.59061 31.9438C7.94667 32.2886 8.42639 32.4793 8.92436 32.474H30.8532C31.3522 32.4802 31.8332 32.2901 32.1907 31.9453C32.5482 31.6006 32.7528 31.1295 32.7597 30.6354V8.83091C32.7526 8.33712 32.5478 7.86632 32.1903 7.52194C31.8329 7.17757 31.3519 6.98779 30.8532 6.9943" fill="#575F64"/>
</svg>
