<svg width="577" height="221" viewBox="0 0 577 221" fill="none" xmlns="http://www.w3.org/2000/svg">
<path d="M8.89565 29.4305H30.7304C33.6956 29.4305 36.5935 29.7337 39.4239 30.3403C42.2543 30.9468 44.7815 31.9576 47.0054 33.3729C49.2293 34.7207 51.0152 36.5066 52.363 38.7305C53.7782 40.9544 54.4858 43.7174 54.4858 47.0196C54.4858 51.1979 53.3402 54.6685 51.0489 57.4315C48.825 60.1272 45.7924 62.0478 41.9511 63.1935V63.3957C44.2424 63.5978 46.3652 64.2044 48.3195 65.2152C50.3413 66.1587 52.0598 67.4055 53.475 68.9555C54.9576 70.5055 56.1032 72.325 56.9119 74.4141C57.7206 76.4359 58.125 78.6261 58.125 80.9848C58.125 84.9609 57.2826 88.2294 55.5978 90.7902C53.9804 93.3511 51.8239 95.4065 49.1282 96.9565C46.5 98.4391 43.5011 99.4837 40.1315 100.09C36.8293 100.697 33.5272 101 30.225 101H8.89565V29.4305ZM17.3869 59.7565H29.113C31.1348 59.7565 33.0891 59.6218 34.9761 59.3522C36.9304 59.0826 38.6826 58.5435 40.2326 57.7348C41.7826 56.8587 43.0293 55.6794 43.9728 54.1968C44.9163 52.6468 45.388 50.625 45.388 48.1316C45.388 45.9076 44.95 44.1218 44.0739 42.7739C43.1978 41.3587 42.0185 40.2468 40.5358 39.4381C39.1206 38.6294 37.4695 38.0903 35.5826 37.8207C33.763 37.4837 31.9098 37.3153 30.0228 37.3153H17.3869V59.7565ZM17.3869 93.1152H31.7413C33.8304 93.1152 35.8858 92.913 37.9076 92.5087C39.9967 92.037 41.85 91.3294 43.4674 90.3859C45.1521 89.375 46.5 88.0946 47.5108 86.5446C48.5217 84.9272 49.0271 82.9728 49.0271 80.6815C49.0271 78.1881 48.5217 76.0989 47.5108 74.4141C46.5674 72.7294 45.2869 71.3815 43.6695 70.3707C42.1195 69.3598 40.3 68.6522 38.2108 68.2478C36.1891 67.8435 34.1 67.6413 31.9435 67.6413H17.3869V93.1152ZM101.783 102.82C96.324 102.82 91.3033 101.876 86.7207 99.9891C82.2055 98.1022 78.2631 95.5076 74.8935 92.2054C71.5914 88.8359 68.9968 84.8598 67.1098 80.2772C65.2903 75.6272 64.3805 70.6065 64.3805 65.2152C64.3805 59.8239 65.2903 54.837 67.1098 50.2544C68.9968 45.6044 71.5914 41.6283 74.8935 38.3261C78.2631 34.9566 82.2055 32.3283 86.7207 30.4413C91.3033 28.5544 96.324 27.6109 101.783 27.6109C107.241 27.6109 112.228 28.5544 116.744 30.4413C121.326 32.3283 125.269 34.9566 128.571 38.3261C131.94 41.6283 134.535 45.6044 136.354 50.2544C138.241 54.837 139.185 59.8239 139.185 65.2152C139.185 70.6065 138.241 75.6272 136.354 80.2772C134.535 84.8598 131.94 88.8359 128.571 92.2054C125.269 95.5076 121.326 98.1022 116.744 99.9891C112.228 101.876 107.241 102.82 101.783 102.82ZM101.783 94.9348C105.961 94.9348 109.769 94.1598 113.205 92.6098C116.71 91.0598 119.709 88.937 122.202 86.2413C124.696 83.5457 126.616 80.412 127.964 76.8402C129.379 73.2011 130.087 69.3261 130.087 65.2152C130.087 61.1044 129.379 57.2631 127.964 53.6913C126.616 50.0522 124.696 46.8848 122.202 44.1892C119.709 41.4935 116.71 39.3707 113.205 37.8207C109.769 36.2707 105.961 35.4957 101.783 35.4957C97.6044 35.4957 93.7631 36.2707 90.2587 37.8207C86.8218 39.3707 83.8566 41.4935 81.3631 44.1892C78.8696 46.8848 76.9153 50.0522 75.5001 53.6913C74.1522 57.2631 73.4783 61.1044 73.4783 65.2152C73.4783 69.3261 74.1522 73.2011 75.5001 76.8402C76.9153 80.412 78.8696 83.5457 81.3631 86.2413C83.8566 88.937 86.8218 91.0598 90.2587 92.6098C93.7631 94.1598 97.6044 94.9348 101.783 94.9348ZM201.453 73.7065C201.453 77.6152 200.947 81.3218 199.936 84.8261C198.993 88.3304 197.443 91.4304 195.286 94.1261C193.197 96.7544 190.434 98.8772 186.997 100.495C183.56 102.045 179.382 102.82 174.463 102.82C169.543 102.82 165.365 102.045 161.928 100.495C158.491 98.8772 155.694 96.7544 153.538 94.1261C151.448 91.4304 149.898 88.3304 148.888 84.8261C147.944 81.3218 147.472 77.6152 147.472 73.7065V29.4305H155.964V72.4935C155.964 75.3913 156.267 78.1881 156.873 80.8837C157.48 83.5794 158.491 85.9717 159.906 88.0609C161.321 90.15 163.208 91.8348 165.567 93.1152C167.926 94.3283 170.891 94.9348 174.463 94.9348C178.034 94.9348 181 94.3283 183.358 93.1152C185.717 91.8348 187.604 90.15 189.019 88.0609C190.434 85.9717 191.445 83.5794 192.052 80.8837C192.658 78.1881 192.961 75.3913 192.961 72.4935V29.4305H201.453V73.7065ZM209.853 29.4305H218.345V93.1152H251.097V101H209.853V29.4305ZM259.386 29.4305H304.369V37.3153H267.877V59.7565H301.943V67.6413H267.877V93.1152H306.189V101H259.386V29.4305ZM308.491 29.4305H318.094L340.131 88.2631H340.334L363.078 29.4305H372.075L344.074 101H335.886L308.491 29.4305ZM398.704 29.4305H406.69L437.117 101H427.211L419.932 83.4109H384.148L376.768 101H367.165L398.704 29.4305ZM402.545 40.3479H402.343L387.483 75.5261H416.698L402.545 40.3479ZM446.63 29.4305H464.926C468.363 29.4305 471.766 29.6327 475.136 30.037C478.573 30.4413 481.639 31.3174 484.335 32.6653C487.031 34.0131 489.221 36.0011 490.906 38.6294C492.59 41.1903 493.433 44.6946 493.433 49.1424C493.433 54.3989 491.849 58.6446 488.682 61.8794C485.514 65.1142 481.134 67.1696 475.54 68.0457L495.859 101H485.447L466.038 68.8544H455.121V101H446.63V29.4305ZM455.121 60.9696H462.702C465.061 60.9696 467.487 60.9022 469.981 60.7674C472.541 60.6326 474.866 60.1946 476.956 59.4533C479.112 58.712 480.864 57.5663 482.212 56.0163C483.627 54.3989 484.335 52.1076 484.335 49.1424C484.335 46.5816 483.83 44.5261 482.819 42.9761C481.808 41.4261 480.46 40.2468 478.775 39.4381C477.158 38.562 475.305 37.9892 473.215 37.7196C471.194 37.45 469.138 37.3153 467.049 37.3153H455.121V60.9696ZM507.113 29.4305H534.608C536.967 29.4305 539.46 29.7 542.089 30.2392C544.717 30.7783 547.312 31.6544 549.872 32.8674C552.501 34.0131 554.994 35.5294 557.353 37.4163C559.779 39.3033 561.902 41.5946 563.721 44.2902C565.541 46.9185 566.99 49.9848 568.068 53.4892C569.146 56.9261 569.685 60.8348 569.685 65.2152C569.685 69.5957 569.146 73.5381 568.068 77.0424C566.99 80.4794 565.541 83.5457 563.721 86.2413C561.902 88.8696 559.779 91.1272 557.353 93.0141C554.994 94.9011 552.501 96.4511 549.872 97.6641C547.312 98.8098 544.717 99.6522 542.089 100.191C539.46 100.73 536.967 101 534.608 101H507.113V29.4305ZM515.604 93.1152H531.778C535.889 93.1152 539.696 92.5761 543.201 91.4978C546.705 90.4196 549.738 88.7685 552.298 86.5446C554.859 84.2533 556.881 81.3554 558.364 77.8511C559.846 74.3468 560.588 70.1348 560.588 65.2152C560.588 60.2957 559.846 56.0837 558.364 52.5794C556.881 49.075 554.859 46.2109 552.298 43.987C549.738 41.6957 546.705 40.0109 543.201 38.9326C539.696 37.8544 535.889 37.3153 531.778 37.3153H515.604V93.1152Z" fill="#FEFEFE"/>
<path d="M8.89565 29.4305V25.2185H4.68369V29.4305H8.89565ZM39.4239 30.3403L40.3064 26.2218L40.3064 26.2218L39.4239 30.3403ZM47.0054 33.3729L44.7441 36.9263L44.783 36.9511L44.8223 36.9749L47.0054 33.3729ZM52.363 38.7305L48.761 40.9135L48.7848 40.9529L48.8095 40.9918L52.363 38.7305ZM51.0489 57.4315L47.8067 54.7429L47.7999 54.7511L51.0489 57.4315ZM41.9511 63.1935L40.7473 59.1572L37.7391 60.0544V63.1935H41.9511ZM41.9511 63.3957H37.7391V67.2524L41.5809 67.5913L41.9511 63.3957ZM48.3195 65.2152L46.3845 68.9564L46.4606 68.9958L46.5384 69.032L48.3195 65.2152ZM53.475 68.9555L50.3645 71.7954L50.3975 71.8315L50.4312 71.8669L53.475 68.9555ZM56.9119 74.4141L52.984 75.9346L52.9925 75.9566L53.0012 75.9784L56.9119 74.4141ZM55.5978 90.7902L52.0791 88.4753L52.0575 88.508L52.0366 88.5411L55.5978 90.7902ZM49.1282 96.9565L51.1977 100.625L51.2127 100.617L51.2278 100.608L49.1282 96.9565ZM40.1315 100.09L39.3853 95.9449L39.378 95.9462L39.3706 95.9476L40.1315 100.09ZM8.89565 101H4.68369V105.212H8.89565V101ZM17.3869 59.7565H13.175V63.9685H17.3869V59.7565ZM34.9761 59.3522L34.4006 55.1797L34.3905 55.1811L34.3804 55.1826L34.9761 59.3522ZM40.2326 57.7348L42.1809 61.4691L42.2436 61.4364L42.3051 61.4016L40.2326 57.7348ZM43.9728 54.1968L47.5263 56.4581L47.5488 56.4226L47.5706 56.3868L43.9728 54.1968ZM44.0739 42.7739L40.4926 44.9909L40.5171 45.0304L40.5424 45.0694L44.0739 42.7739ZM40.5358 39.4381L38.4461 43.0951L38.4823 43.1158L38.5189 43.1357L40.5358 39.4381ZM35.5826 37.8207L34.8156 41.9622L34.901 41.978L34.9869 41.9903L35.5826 37.8207ZM17.3869 37.3153V33.1033H13.175V37.3153H17.3869ZM17.3869 93.1152H13.175V97.3272H17.3869V93.1152ZM37.9076 92.5087L38.7336 96.6389L38.7846 96.6287L38.8353 96.6172L37.9076 92.5087ZM43.4674 90.3859L45.5896 94.0241L45.6121 94.011L45.6344 93.9976L43.4674 90.3859ZM47.5108 86.5446L51.0388 88.8454L51.061 88.8114L51.0826 88.7769L47.5108 86.5446ZM47.5108 74.4141L43.8359 76.4721L43.8667 76.5271L43.8991 76.5812L47.5108 74.4141ZM43.6695 70.3707L41.3687 73.8986L41.4027 73.9209L41.4372 73.9424L43.6695 70.3707ZM38.2108 68.2478L37.3848 72.378L37.3976 72.3806L37.4105 72.3831L38.2108 68.2478ZM17.3869 67.6413V63.4294H13.175V67.6413H17.3869ZM8.89565 33.6424H30.7304V25.2185H8.89565V33.6424ZM30.7304 33.6424C33.4062 33.6424 36.008 33.9159 38.5414 34.4587L40.3064 26.2218C37.1789 25.5516 33.985 25.2185 30.7304 25.2185V33.6424ZM38.5414 34.4587C40.9303 34.9706 42.9821 35.805 44.7441 36.9263L49.2667 29.8194C46.5809 28.1103 43.5784 26.9229 40.3064 26.2218L38.5414 34.4587ZM44.8223 36.9749C46.4658 37.971 47.7649 39.27 48.761 40.9135L55.9651 36.5474C54.2655 33.7431 51.9928 31.4704 49.1885 29.7708L44.8223 36.9749ZM48.8095 40.9918C49.6979 42.3878 50.2739 44.3168 50.2739 47.0196H58.6978C58.6978 43.1181 57.8585 39.521 55.9165 36.4692L48.8095 40.9918ZM50.2739 47.0196C50.2739 50.3853 49.371 52.8565 47.8067 54.7429L54.2911 60.1202C57.3093 56.4805 58.6978 52.0104 58.6978 47.0196H50.2739ZM47.7999 54.7511C46.1833 56.7107 43.9087 58.2144 40.7473 59.1572L43.1549 67.2298C47.676 65.8813 51.4667 63.5437 54.2979 60.112L47.7999 54.7511ZM37.7391 63.1935V63.3957H46.163V63.1935H37.7391ZM41.5809 67.5913C43.3512 67.7475 44.9392 68.2088 46.3845 68.9564L50.2546 61.4741C47.7912 60.1999 45.1336 59.4482 42.3213 59.2L41.5809 67.5913ZM46.5384 69.032C48.0891 69.7557 49.3468 70.6809 50.3645 71.7954L56.5854 66.1155C54.7727 64.13 52.5935 62.5617 50.1007 61.3984L46.5384 69.032ZM50.4312 71.8669C51.5134 72.9982 52.3665 74.3394 52.984 75.9346L60.8399 72.8937C59.84 70.3106 58.4017 68.0127 56.5187 66.0441L50.4312 71.8669ZM53.0012 75.9784C53.5949 77.4626 53.913 79.1171 53.913 80.9848H62.3369C62.3369 78.1351 61.8463 75.4092 60.8226 72.8499L53.0012 75.9784ZM53.913 80.9848C53.913 84.3796 53.195 86.7791 52.0791 88.4753L59.1165 93.1052C61.3702 89.6797 62.3369 85.5421 62.3369 80.9848H53.913ZM52.0366 88.5411C50.7951 90.5068 49.1468 92.0873 47.0287 93.3052L51.2278 100.608C54.501 98.7258 57.1657 96.1954 59.159 93.0394L52.0366 88.5411ZM47.0588 93.288C44.8931 94.5097 42.3519 95.4109 39.3853 95.9449L40.8777 104.236C44.6502 103.556 48.1069 102.369 51.1977 100.625L47.0588 93.288ZM39.3706 95.9476C36.3152 96.5088 33.2677 96.788 30.225 96.788V105.212C33.7866 105.212 37.3434 104.885 40.8924 104.233L39.3706 95.9476ZM30.225 96.788H8.89565V105.212H30.225V96.788ZM13.1076 101V29.4305H4.68369V101H13.1076ZM17.3869 63.9685H29.113V55.5446H17.3869V63.9685ZM29.113 63.9685C31.3221 63.9685 33.476 63.8212 35.5717 63.5218L34.3804 55.1826C32.7022 55.4223 30.9474 55.5446 29.113 55.5446V63.9685ZM35.5516 63.5246C37.9243 63.1974 40.1505 62.5284 42.1809 61.4691L38.2843 54.0006C37.2147 54.5586 35.9365 54.9679 34.4006 55.1797L35.5516 63.5246ZM42.3051 61.4016C44.4483 60.1902 46.2068 58.5315 47.5263 56.4581L40.4193 51.9355C39.8518 52.8273 39.1169 53.5272 38.1601 54.068L42.3051 61.4016ZM47.5706 56.3868C49.0391 53.9743 49.6 51.1198 49.6 48.1316H41.1761C41.1761 50.1303 40.7934 51.3193 40.375 52.0068L47.5706 56.3868ZM49.6 48.1316C49.6 45.3942 49.0654 42.7247 47.6054 40.4785L40.5424 45.0694C40.8346 45.5189 41.1761 46.4211 41.1761 48.1316H49.6ZM47.6552 40.557C46.3889 38.5115 44.6665 36.8934 42.5528 35.7404L38.5189 43.1357C39.3704 43.6002 40.0067 44.206 40.4926 44.9909L47.6552 40.557ZM42.6256 35.7811C40.678 34.6682 38.5034 33.9832 36.1782 33.6511L34.9869 41.9903C36.4357 42.1973 37.5633 42.5906 38.4461 43.0951L42.6256 35.7811ZM36.3495 33.6792C34.2721 33.2944 32.162 33.1033 30.0228 33.1033V41.5272C31.6576 41.5272 33.254 41.673 34.8156 41.9622L36.3495 33.6792ZM30.0228 33.1033H17.3869V41.5272H30.0228V33.1033ZM13.175 37.3153V59.7565H21.5989V37.3153H13.175ZM17.3869 97.3272H31.7413V88.9033H17.3869V97.3272ZM31.7413 97.3272C34.1041 97.3272 36.4363 97.0983 38.7336 96.6389L37.0816 88.3785C35.3354 88.7278 33.5567 88.9033 31.7413 88.9033V97.3272ZM38.8353 96.6172C41.2851 96.064 43.5514 95.2131 45.5896 94.0241L41.3451 86.7477C40.1486 87.4456 38.7084 88.0099 36.9799 88.4002L38.8353 96.6172ZM45.6344 93.9976C47.8317 92.6792 49.6581 90.9626 51.0388 88.8454L43.9829 84.2437C43.3419 85.2265 42.4726 86.0708 41.3003 86.7742L45.6344 93.9976ZM51.0826 88.7769C52.5893 86.3661 53.2391 83.602 53.2391 80.6815H44.8152C44.8152 82.3436 44.4541 83.4882 43.9391 84.3122L51.0826 88.7769ZM53.2391 80.6815C53.2391 77.6273 52.6188 74.7408 51.1226 72.2471L43.8991 76.5812C44.4246 77.457 44.8152 78.7488 44.8152 80.6815H53.2391ZM51.1858 72.3562C49.9008 70.0616 48.1275 68.1899 45.9019 66.7989L41.4372 73.9424C42.4464 74.5731 43.2339 75.3972 43.8359 76.4721L51.1858 72.3562ZM45.9704 66.8427C43.901 65.4931 41.5557 64.6051 39.0112 64.1126L37.4105 72.3831C39.0443 72.6993 40.338 73.2265 41.3687 73.8986L45.9704 66.8427ZM39.0369 64.1177C36.731 63.6565 34.3647 63.4294 31.9435 63.4294V71.8533C33.8353 71.8533 35.6472 72.0305 37.3848 72.378L39.0369 64.1177ZM31.9435 63.4294H17.3869V71.8533H31.9435V63.4294ZM13.175 67.6413V93.1152H21.5989V67.6413H13.175ZM86.7207 99.9891L85.0966 103.875L85.1068 103.88L85.117 103.884L86.7207 99.9891ZM74.8935 92.2054L71.8853 95.1535L71.9151 95.1839L71.9455 95.2137L74.8935 92.2054ZM67.1098 80.2772L63.1875 81.812L63.201 81.8466L63.2151 81.8809L67.1098 80.2772ZM67.1098 50.2544L63.207 48.6706L63.201 48.6853L63.1952 48.7L67.1098 50.2544ZM74.8935 38.3261L77.8718 41.3044L77.8718 41.3044L74.8935 38.3261ZM86.7207 30.4413L85.117 26.5466L85.1068 26.5509L85.0966 26.5551L86.7207 30.4413ZM116.744 30.4413L115.119 34.3276L115.13 34.3318L115.14 34.3361L116.744 30.4413ZM128.571 38.3261L125.562 41.2742L125.592 41.3046L125.623 41.3344L128.571 38.3261ZM136.354 50.2544L132.432 51.7892L132.446 51.8238L132.46 51.8581L136.354 50.2544ZM136.354 80.2772L132.452 78.6934L132.446 78.7081L132.44 78.7228L136.354 80.2772ZM128.571 92.2054L131.549 95.1837L131.549 95.1837L128.571 92.2054ZM116.744 99.9891L115.14 96.0944L115.13 96.0986L115.119 96.1029L116.744 99.9891ZM113.205 92.6098L111.502 88.7578L111.488 88.764L111.474 88.7702L113.205 92.6098ZM122.202 86.2413L119.11 83.3812L119.11 83.3812L122.202 86.2413ZM127.964 76.8402L124.039 75.3136L124.031 75.3334L124.023 75.3532L127.964 76.8402ZM127.964 53.6913L124.014 55.1542L124.031 55.1987L124.048 55.2429L127.964 53.6913ZM113.205 37.8207L111.474 41.6603L111.488 41.6665L111.502 41.6727L113.205 37.8207ZM90.2587 37.8207L88.555 33.9687L88.5411 33.9749L88.5272 33.9811L90.2587 37.8207ZM75.5001 53.6913L71.5745 52.1647L71.5668 52.1845L71.5593 52.2043L75.5001 53.6913ZM75.5001 76.8402L71.5503 78.3031L71.5668 78.3476L71.5843 78.3918L75.5001 76.8402ZM81.3631 86.2413L84.4551 83.3812L84.4551 83.3812L81.3631 86.2413ZM90.2587 92.6098L88.5272 96.4493L88.5411 96.4556L88.555 96.4618L90.2587 92.6098ZM101.783 98.6076C96.8181 98.6076 92.349 97.7516 88.3244 96.0944L85.117 103.884C90.2577 106.001 95.8298 107.032 101.783 107.032V98.6076ZM88.3448 96.1029C84.3039 94.4142 80.8153 92.1115 77.8416 89.1972L71.9455 95.2137C75.7109 98.9038 80.1071 101.79 85.0966 103.875L88.3448 96.1029ZM77.9018 89.2574C74.9978 86.2941 72.6958 82.7808 71.0045 78.6735L63.2151 81.8809C65.2978 86.9388 68.185 91.3777 71.8853 95.1535L77.9018 89.2574ZM71.0322 78.7424C69.4188 74.6192 68.5925 70.1235 68.5925 65.2152H60.1685C60.1685 71.0896 61.1618 76.6352 63.1875 81.812L71.0322 78.7424ZM68.5925 65.2152C68.5925 60.3063 69.419 55.8523 71.0245 51.8087L63.1952 48.7C61.1616 53.8217 60.1685 59.3416 60.1685 65.2152H68.5925ZM71.0127 51.8381C72.7038 47.6708 74.997 44.1793 77.8718 41.3044L71.9152 35.3478C68.1857 39.0773 65.2898 43.538 63.207 48.6706L71.0127 51.8381ZM77.8718 41.3044C80.8429 38.3334 84.3219 36.0088 88.3448 34.3276L85.0966 26.5551C80.0891 28.6478 75.6833 31.5798 71.9152 35.3478L77.8718 41.3044ZM88.3244 34.3361C92.349 32.6789 96.8181 31.8229 101.783 31.8229V23.399C95.8298 23.399 90.2577 24.4299 85.117 26.5466L88.3244 34.3361ZM101.783 31.8229C106.748 31.8229 111.175 32.6792 115.119 34.3276L118.368 26.5551C113.282 24.4296 107.735 23.399 101.783 23.399V31.8229ZM115.14 34.3361C119.222 36.017 122.68 38.3325 125.562 41.2742L131.579 35.3781C127.857 31.5807 123.43 28.6396 118.347 26.5466L115.14 34.3361ZM125.623 41.3344C128.542 44.1957 130.817 47.6607 132.432 51.7892L140.277 48.7195C138.253 43.5481 135.338 39.0609 131.519 35.3179L125.623 41.3344ZM132.46 51.8581C134.119 55.8888 134.973 60.3254 134.973 65.2152H143.397C143.397 59.3224 142.363 53.7851 140.249 48.6507L132.46 51.8581ZM134.973 65.2152C134.973 70.1044 134.12 74.5829 132.452 78.6934L140.257 81.861C142.363 76.6715 143.397 71.1087 143.397 65.2152H134.973ZM132.44 78.7228C130.824 82.7909 128.542 86.2776 125.592 89.2271L131.549 95.1837C135.339 91.3941 138.245 86.9287 140.269 81.8315L132.44 78.7228ZM125.592 89.2271C122.707 92.1124 119.24 94.4061 115.14 96.0944L118.347 103.884C123.412 101.798 127.83 98.9028 131.549 95.1837L125.592 89.2271ZM115.119 96.1029C111.175 97.7513 106.748 98.6076 101.783 98.6076V107.032C107.735 107.032 113.282 106.001 118.368 103.875L115.119 96.1029ZM101.783 99.1467C106.493 99.1467 110.9 98.2702 114.937 96.4493L111.474 88.7702C108.638 90.0494 105.429 90.7228 101.783 90.7228V99.1467ZM114.909 96.4618C118.916 94.6896 122.394 92.2373 125.294 89.1014L119.11 83.3812C117.024 85.6367 114.504 87.4299 111.502 88.7578L114.909 96.4618ZM125.294 89.1014C128.171 85.9913 130.373 82.3866 131.905 78.3273L124.023 75.3532C122.86 78.4373 121.22 81.1 119.11 83.3812L125.294 89.1014ZM131.89 78.3668C133.504 74.2156 134.299 69.8204 134.299 65.2152H125.875C125.875 68.8318 125.255 72.1866 124.039 75.3136L131.89 78.3668ZM134.299 65.2152C134.299 60.6107 133.504 56.2391 131.88 52.1398L124.048 55.2429C125.255 58.287 125.875 61.5981 125.875 65.2152H134.299ZM131.914 52.2285C130.385 48.1017 128.183 44.4525 125.294 41.3291L119.11 47.0493C121.208 49.3171 122.847 52.0027 124.014 55.1542L131.914 52.2285ZM125.294 41.3291C122.394 38.1932 118.916 35.7408 114.909 33.9687L111.502 41.6727C114.504 43.0005 117.024 44.7938 119.11 47.0493L125.294 41.3291ZM114.937 33.9811C110.9 32.1603 106.493 31.2837 101.783 31.2837V39.7076C105.429 39.7076 108.638 40.3811 111.474 41.6603L114.937 33.9811ZM101.783 31.2837C97.0712 31.2837 92.6429 32.1606 88.555 33.9687L91.9625 41.6727C94.8833 40.3808 98.1376 39.7076 101.783 39.7076V31.2837ZM88.5272 33.9811C84.5898 35.7568 81.1582 38.2079 78.2711 41.3291L84.4551 47.0493C86.5549 44.7792 89.0538 42.9846 91.9903 41.6603L88.5272 33.9811ZM78.2711 41.3291C75.3962 44.437 73.1691 48.0643 71.5745 52.1647L79.4256 55.2179C80.6614 52.0401 82.343 49.3326 84.4551 47.0493L78.2711 41.3291ZM71.5593 52.2043C70.0188 56.2867 69.2664 60.6356 69.2664 65.2152H77.6903C77.6903 61.5731 78.2856 58.2395 79.4408 55.1784L71.5593 52.2043ZM69.2664 65.2152C69.2664 69.7955 70.019 74.1685 71.5503 78.3031L79.4498 75.3774C78.2855 72.2337 77.6903 68.8567 77.6903 65.2152H69.2664ZM71.5843 78.3918C73.182 82.4241 75.4084 86.0066 78.2711 89.1014L84.4551 83.3812C82.3308 81.0847 80.6485 78.3998 79.4158 75.2887L71.5843 78.3918ZM78.2711 89.1014C81.1582 92.2226 84.5898 94.6737 88.5272 96.4493L91.9903 88.7702C89.0538 87.4459 86.5549 85.6513 84.4551 83.3812L78.2711 89.1014ZM88.555 96.4618C92.6429 98.2699 97.0712 99.1467 101.783 99.1467V90.7228C98.1376 90.7228 94.8833 90.0497 91.9625 88.7578L88.555 96.4618ZM199.936 84.8261L195.889 83.6587L195.879 83.6948L195.869 83.7311L199.936 84.8261ZM195.286 94.1261L191.997 91.4949L191.989 91.5052L195.286 94.1261ZM186.997 100.495L188.729 104.334L188.76 104.32L188.791 104.306L186.997 100.495ZM161.928 100.495L160.134 104.306L160.165 104.32L160.196 104.334L161.928 100.495ZM153.538 94.1261L150.208 96.7062L150.244 96.7525L150.281 96.7978L153.538 94.1261ZM148.888 84.8261L144.82 85.9211L144.83 85.9574L144.841 85.9935L148.888 84.8261ZM147.472 29.4305V25.2185H143.26V29.4305H147.472ZM155.964 29.4305H160.176V25.2185H155.964V29.4305ZM156.873 80.8837L152.764 81.8083L152.764 81.8083L156.873 80.8837ZM159.906 88.0609L156.419 90.4231L156.419 90.4231L159.906 88.0609ZM165.567 93.1152L163.557 96.8169L163.599 96.8394L163.641 96.8609L165.567 93.1152ZM183.358 93.1152L185.285 96.8609L185.326 96.8394L185.368 96.8169L183.358 93.1152ZM189.019 88.0609L185.532 85.6986L189.019 88.0609ZM192.052 80.8837L187.942 79.9591L187.942 79.9591L192.052 80.8837ZM192.961 29.4305V25.2185H188.749V29.4305H192.961ZM201.453 29.4305H205.665V25.2185H201.453V29.4305ZM197.241 73.7065C197.241 77.2485 196.783 80.56 195.889 83.6587L203.983 85.9935C205.111 82.0835 205.665 77.982 205.665 73.7065H197.241ZM195.869 83.7311C195.069 86.7045 193.773 89.2754 191.997 91.4949L198.575 96.7573C201.113 93.5855 202.917 89.9563 204.004 85.9211L195.869 83.7311ZM191.989 91.5052C190.353 93.5633 188.132 95.3055 185.204 96.6835L188.791 104.306C192.736 102.449 196.041 99.9454 198.584 96.747L191.989 91.5052ZM185.266 96.655C182.512 97.8968 178.959 98.6076 174.463 98.6076V107.032C179.805 107.032 184.609 106.192 188.729 104.334L185.266 96.655ZM174.463 98.6076C169.966 98.6076 166.413 97.8968 163.659 96.655L160.196 104.334C164.316 106.192 169.12 107.032 174.463 107.032V98.6076ZM163.721 96.6835C160.783 95.3011 158.509 93.5448 156.794 91.4544L150.281 96.7978C152.879 99.9639 156.198 102.453 160.134 104.306L163.721 96.6835ZM156.867 91.546C155.126 89.3001 153.808 86.6869 152.935 83.6587L144.841 85.9935C145.989 89.974 147.771 93.5607 150.208 96.7062L156.867 91.546ZM152.955 83.7311C152.114 80.6101 151.684 77.2738 151.684 73.7065H143.26C143.26 77.9567 143.774 82.0334 144.82 85.9211L152.955 83.7311ZM151.684 73.7065V29.4305H143.26V73.7065H151.684ZM147.472 33.6424H155.964V25.2185H147.472V33.6424ZM151.752 29.4305V72.4935H160.176V29.4305H151.752ZM151.752 72.4935C151.752 75.6872 152.086 78.7948 152.764 81.8083L160.983 79.9591C160.448 77.5813 160.176 75.0954 160.176 72.4935H151.752ZM152.764 81.8083C153.475 84.9689 154.681 87.8582 156.419 90.4231L163.393 85.6986C162.3 84.0853 161.485 82.1898 160.983 79.9591L152.764 81.8083ZM156.419 90.4231C158.236 93.106 160.645 95.2358 163.557 96.8169L167.576 89.4135C165.772 88.4338 164.406 87.194 163.393 85.6986L156.419 90.4231ZM163.641 96.8609C166.765 98.4678 170.442 99.1467 174.463 99.1467V90.7228C171.339 90.7228 169.086 90.1887 167.493 89.3696L163.641 96.8609ZM174.463 99.1467C178.483 99.1467 182.16 98.4678 185.285 96.8609L181.432 89.3696C179.839 90.1887 177.586 90.7228 174.463 90.7228V99.1467ZM185.368 96.8169C188.28 95.2358 190.689 93.106 192.506 90.4231L185.532 85.6986C184.519 87.194 183.153 88.4338 181.349 89.4135L185.368 96.8169ZM192.506 90.4231C194.244 87.8582 195.45 84.9689 196.161 81.8083L187.942 79.9591C187.441 82.1898 186.625 84.0853 185.532 85.6986L192.506 90.4231ZM196.161 81.8083C196.839 78.7948 197.173 75.6872 197.173 72.4935H188.749C188.749 75.0954 188.477 77.5813 187.942 79.9591L196.161 81.8083ZM197.173 72.4935V29.4305H188.749V72.4935H197.173ZM192.961 33.6424H201.453V25.2185H192.961V33.6424ZM197.241 29.4305V73.7065H205.665V29.4305H197.241ZM209.853 29.4305V25.2185H205.641V29.4305H209.853ZM218.345 29.4305H222.556V25.2185H218.345V29.4305ZM218.345 93.1152H214.133V97.3272H218.345V93.1152ZM251.097 93.1152H255.309V88.9033H251.097V93.1152ZM251.097 101V105.212H255.309V101H251.097ZM209.853 101H205.641V105.212H209.853V101ZM209.853 33.6424H218.345V25.2185H209.853V33.6424ZM214.133 29.4305V93.1152H222.556V29.4305H214.133ZM218.345 97.3272H251.097V88.9033H218.345V97.3272ZM246.885 93.1152V101H255.309V93.1152H246.885ZM251.097 96.788H209.853V105.212H251.097V96.788ZM214.065 101V29.4305H205.641V101H214.065ZM259.386 29.4305V25.2185H255.174V29.4305H259.386ZM304.369 29.4305H308.581V25.2185H304.369V29.4305ZM304.369 37.3153V41.5272H308.581V37.3153H304.369ZM267.877 37.3153V33.1033H263.665V37.3153H267.877ZM267.877 59.7565H263.665V63.9685H267.877V59.7565ZM301.943 59.7565H306.155V55.5446H301.943V59.7565ZM301.943 67.6413V71.8533H306.155V67.6413H301.943ZM267.877 67.6413V63.4294H263.665V67.6413H267.877ZM267.877 93.1152H263.665V97.3272H267.877V93.1152ZM306.189 93.1152H310.401V88.9033H306.189V93.1152ZM306.189 101V105.212H310.401V101H306.189ZM259.386 101H255.174V105.212H259.386V101ZM259.386 33.6424H304.369V25.2185H259.386V33.6424ZM300.158 29.4305V37.3153H308.581V29.4305H300.158ZM304.369 33.1033H267.877V41.5272H304.369V33.1033ZM263.665 37.3153V59.7565H272.089V37.3153H263.665ZM267.877 63.9685H301.943V55.5446H267.877V63.9685ZM297.731 59.7565V67.6413H306.155V59.7565H297.731ZM301.943 63.4294H267.877V71.8533H301.943V63.4294ZM263.665 67.6413V93.1152H272.089V67.6413H263.665ZM267.877 97.3272H306.189V88.9033H267.877V97.3272ZM301.977 93.1152V101H310.401V93.1152H301.977ZM306.189 96.788H259.386V105.212H306.189V96.788ZM263.598 101V29.4305H255.174V101H263.598ZM308.491 29.4305V25.2185H302.369L304.557 30.9362L308.491 29.4305ZM318.094 29.4305L322.039 27.9531L321.014 25.2185H318.094V29.4305ZM340.131 88.2631L336.187 89.7405L337.211 92.475H340.131V88.2631ZM340.334 88.2631V92.475H343.221L344.262 89.7818L340.334 88.2631ZM363.078 29.4305V25.2185H360.191L359.149 27.9117L363.078 29.4305ZM372.075 29.4305L375.997 30.9651L378.246 25.2185H372.075V29.4305ZM344.074 101V105.212H346.949L347.996 102.535L344.074 101ZM335.886 101L331.952 102.506L332.988 105.212H335.886V101ZM308.491 33.6424H318.094V25.2185H308.491V33.6424ZM314.15 30.9079L336.187 89.7405L344.076 86.7856L322.039 27.9531L314.15 30.9079ZM340.131 92.475H340.334V84.0511H340.131V92.475ZM344.262 89.7818L367.007 30.9493L359.149 27.9117L336.405 86.7443L344.262 89.7818ZM363.078 33.6424H372.075V25.2185H363.078V33.6424ZM368.152 27.8959L340.151 99.4654L347.996 102.535L375.997 30.9651L368.152 27.8959ZM344.074 96.788H335.886V105.212H344.074V96.788ZM339.819 99.4943L312.425 27.9248L304.557 30.9362L331.952 102.506L339.819 99.4943ZM398.704 29.4305V25.2185H395.957L394.85 27.732L398.704 29.4305ZM406.69 29.4305L410.566 27.7826L409.476 25.2185H406.69V29.4305ZM437.117 101V105.212H443.485L440.993 99.3521L437.117 101ZM427.211 101L423.319 102.61L424.395 105.212H427.211V101ZM419.932 83.4109L423.824 81.8004L422.748 79.1989H419.932V83.4109ZM384.148 83.4109V79.1989H381.347L380.264 81.7814L384.148 83.4109ZM376.768 101V105.212H379.569L380.652 102.629L376.768 101ZM367.165 101L363.311 99.3015L360.706 105.212H367.165V101ZM402.545 40.3479L406.453 38.7758L405.391 36.1359H402.545V40.3479ZM402.343 40.3479V36.1359H399.55L398.463 38.7089L402.343 40.3479ZM387.483 75.5261L383.603 73.8871L381.132 79.7381H387.483V75.5261ZM416.698 75.5261V79.7381H422.932L420.605 73.9541L416.698 75.5261ZM398.704 33.6424H406.69V25.2185H398.704V33.6424ZM402.814 31.0784L433.241 102.648L440.993 99.3521L410.566 27.7826L402.814 31.0784ZM437.117 96.788H427.211V105.212H437.117V96.788ZM431.102 99.3896L423.824 81.8004L416.04 85.0213L423.319 102.61L431.102 99.3896ZM419.932 79.1989H384.148V87.6228H419.932V79.1989ZM380.264 81.7814L372.884 99.3705L380.652 102.629L388.032 85.0404L380.264 81.7814ZM376.768 96.788H367.165V105.212H376.768V96.788ZM371.019 102.699L402.558 31.129L394.85 27.732L363.311 99.3015L371.019 102.699ZM402.545 36.1359H402.343V44.5598H402.545V36.1359ZM398.463 38.7089L383.603 73.8871L391.363 77.1651L406.223 41.9868L398.463 38.7089ZM387.483 79.7381H416.698V71.3141H387.483V79.7381ZM420.605 73.9541L406.453 38.7758L398.638 41.9199L412.79 77.0981L420.605 73.9541ZM446.63 29.4305V25.2185H442.418V29.4305H446.63ZM475.136 30.037L474.634 34.219L474.644 34.2201L475.136 30.037ZM484.335 32.6653L486.219 28.898L486.219 28.898L484.335 32.6653ZM490.906 38.6294L487.36 40.9024L487.373 40.9235L487.387 40.9443L490.906 38.6294ZM475.54 68.0457L474.889 63.8845L468.631 64.8646L471.955 70.2562L475.54 68.0457ZM495.859 101V105.212H503.404L499.444 98.7895L495.859 101ZM485.447 101L481.841 103.177L483.07 105.212H485.447V101ZM466.038 68.8544L469.644 66.6773L468.415 64.6424H466.038V68.8544ZM455.121 68.8544V64.6424H450.909V68.8544H455.121ZM455.121 101V105.212H459.333V101H455.121ZM446.63 101H442.418V105.212H446.63V101ZM455.121 60.9696H450.909V65.1815H455.121V60.9696ZM469.981 60.7674L469.759 56.5613L469.753 56.5616L469.981 60.7674ZM476.956 59.4533L475.586 55.4701L475.567 55.4769L475.547 55.4838L476.956 59.4533ZM482.212 56.0163L479.042 53.2427L479.034 53.2525L482.212 56.0163ZM482.819 42.9761L479.291 45.277L479.291 45.277L482.819 42.9761ZM478.775 39.4381L476.769 43.1416L476.86 43.1907L476.953 43.2353L478.775 39.4381ZM473.215 37.7196L472.659 41.8946L472.668 41.8958L472.676 41.8969L473.215 37.7196ZM455.121 37.3153V33.1033H450.909V37.3153H455.121ZM446.63 33.6424H464.926V25.2185H446.63V33.6424ZM464.926 33.6424C468.198 33.6424 471.433 33.8348 474.634 34.219L475.638 25.855C472.1 25.4305 468.529 25.2185 464.926 25.2185V33.6424ZM474.644 34.2201C477.667 34.5758 480.251 35.3326 482.451 36.4325L486.219 28.898C483.027 27.3023 479.479 26.3069 475.628 25.8539L474.644 34.2201ZM482.451 36.4325C484.443 37.4286 486.069 38.8889 487.36 40.9024L494.452 36.3563C492.373 33.1134 489.618 30.5976 486.219 28.898L482.451 36.4325ZM487.387 40.9443C488.458 42.5732 489.221 45.1652 489.221 49.1424H497.645C497.645 44.224 496.722 39.8073 494.424 36.3144L487.387 40.9443ZM489.221 49.1424C489.221 53.4885 487.945 56.6118 485.672 58.9326L491.691 64.8262C495.754 60.6773 497.645 55.3094 497.645 49.1424H489.221ZM485.672 58.9326C483.284 61.3719 479.814 63.1131 474.889 63.8845L476.192 72.2069C482.454 71.2261 487.745 68.8564 491.691 64.8262L485.672 58.9326ZM471.955 70.2562L492.274 103.211L499.444 98.7895L479.126 65.8351L471.955 70.2562ZM495.859 96.788H485.447V105.212H495.859V96.788ZM489.053 98.823L469.644 66.6773L462.433 71.0314L481.841 103.177L489.053 98.823ZM466.038 64.6424H455.121V73.0663H466.038V64.6424ZM450.909 68.8544V101H459.333V68.8544H450.909ZM455.121 96.788H446.63V105.212H455.121V96.788ZM450.841 101V29.4305H442.418V101H450.841ZM455.121 65.1815H462.702V56.7576H455.121V65.1815ZM462.702 65.1815C465.141 65.1815 467.643 65.1119 470.208 64.9732L469.753 56.5616C467.331 56.6925 464.981 56.7576 462.702 56.7576V65.1815ZM470.202 64.9735C473.106 64.8207 475.838 64.319 478.364 63.4227L475.547 55.4838C473.895 56.0702 471.977 56.4446 469.759 56.5613L470.202 64.9735ZM478.325 63.4365C481.102 62.4818 483.505 60.9483 485.39 58.7801L479.034 53.2525C478.223 54.1844 477.122 54.9422 475.586 55.4701L478.325 63.4365ZM485.382 58.7899C487.687 56.1561 488.547 52.7402 488.547 49.1424H480.123C480.123 51.4751 479.568 52.6418 479.042 53.2427L485.382 58.7899ZM488.547 49.1424C488.547 46.0672 487.945 43.1254 486.347 40.6753L479.291 45.277C479.714 45.9268 480.123 47.0959 480.123 49.1424H488.547ZM486.347 40.6753C484.91 38.4732 482.97 36.7795 480.598 35.6409L476.953 43.2353C477.95 43.714 478.705 44.379 479.291 45.277L486.347 40.6753ZM480.781 35.7345C478.647 34.5785 476.284 33.8686 473.754 33.5423L472.676 41.8969C474.325 42.1097 475.669 42.5455 476.769 43.1416L480.781 35.7345ZM473.772 33.5446C471.561 33.2498 469.32 33.1033 467.049 33.1033V41.5272C468.957 41.5272 470.826 41.6502 472.659 41.8946L473.772 33.5446ZM467.049 33.1033H455.121V41.5272H467.049V33.1033ZM450.909 37.3153V60.9696H459.333V37.3153H450.909ZM507.113 29.4305V25.2185H502.901V29.4305H507.113ZM542.089 30.2392L542.935 26.1131L542.935 26.1131L542.089 30.2392ZM549.872 32.8674L548.069 36.6739L548.129 36.7022L548.189 36.7285L549.872 32.8674ZM557.353 37.4163L554.722 40.7053L554.744 40.7234L554.767 40.7411L557.353 37.4163ZM563.721 44.2902L560.23 46.6467L560.244 46.6673L560.258 46.6877L563.721 44.2902ZM568.068 53.4892L564.042 54.7278L564.046 54.7389L564.049 54.75L568.068 53.4892ZM568.068 77.0424L572.087 78.3032L572.09 78.2922L572.094 78.2811L568.068 77.0424ZM563.721 86.2413L567.184 88.6388L567.198 88.6184L567.212 88.5978L563.721 86.2413ZM557.353 93.0141L554.767 89.6894L554.744 89.7071L554.722 89.7252L557.353 93.0141ZM549.872 97.6641L551.592 101.509L551.615 101.499L551.637 101.488L549.872 97.6641ZM542.089 100.191L542.935 104.317L542.935 104.317L542.089 100.191ZM507.113 101H502.901V105.212H507.113V101ZM515.604 93.1152H511.392V97.3272H515.604V93.1152ZM543.201 91.4978L541.962 87.4721L541.962 87.4721L543.201 91.4978ZM552.298 86.5446L555.06 89.7247L555.084 89.7043L555.107 89.6835L552.298 86.5446ZM558.364 77.8511L554.485 76.21L554.485 76.21L558.364 77.8511ZM558.364 52.5794L562.243 50.9382L562.243 50.9382L558.364 52.5794ZM552.298 43.987L549.49 47.1259L549.513 47.1467L549.537 47.1672L552.298 43.987ZM543.201 38.9326L541.962 42.9583L541.962 42.9583L543.201 38.9326ZM515.604 37.3153V33.1033H511.392V37.3153H515.604ZM507.113 33.6424H534.608V25.2185H507.113V33.6424ZM534.608 33.6424C536.647 33.6424 538.855 33.8756 541.242 34.3652L542.935 26.1131C540.066 25.5245 537.287 25.2185 534.608 25.2185V33.6424ZM541.242 34.3652C543.522 34.8328 545.796 35.5973 548.069 36.6739L551.675 29.0609C548.827 27.7115 545.912 26.7238 542.935 26.1131L541.242 34.3652ZM548.189 36.7285C550.46 37.7183 552.637 39.0376 554.722 40.7053L559.984 34.1274C557.351 32.0212 554.541 30.3079 551.555 29.0064L548.189 36.7285ZM554.767 40.7411C556.822 42.3396 558.645 44.2981 560.23 46.6467L567.212 41.9338C565.159 38.8912 562.736 36.267 559.939 34.0916L554.767 40.7411ZM560.258 46.6877C561.799 48.9131 563.073 51.5768 564.042 54.7278L572.094 52.2505C570.907 48.3928 569.283 44.924 567.184 41.8928L560.258 46.6877ZM564.049 54.75C564.975 57.7019 565.473 61.1735 565.473 65.2152H573.897C573.897 60.4962 573.317 56.1503 572.087 52.2284L564.049 54.75ZM565.473 65.2152C565.473 69.2549 564.976 72.7699 564.042 75.8037L572.094 78.2811C573.317 74.3062 573.897 69.9364 573.897 65.2152H565.473ZM564.049 75.7816C563.08 78.8711 561.799 81.5611 560.23 83.8848L567.212 88.5978C569.283 85.5302 570.9 82.0876 572.087 78.3032L564.049 75.7816ZM560.258 83.8438C558.672 86.1344 556.842 88.0756 554.767 89.6894L559.939 96.3389C562.716 94.1788 565.131 91.6047 567.184 88.6388L560.258 83.8438ZM554.722 89.7252C552.617 91.4086 550.413 92.7756 548.107 93.8398L551.637 101.488C554.588 100.127 557.371 98.3936 559.984 96.3031L554.722 89.7252ZM548.152 93.8194C545.859 94.8454 543.557 95.5905 541.242 96.0653L542.935 104.317C545.877 103.714 548.764 102.774 551.592 101.509L548.152 93.8194ZM541.242 96.0653C538.855 96.5549 536.647 96.788 534.608 96.788V105.212C537.287 105.212 540.066 104.906 542.935 104.317L541.242 96.0653ZM534.608 96.788H507.113V105.212H534.608V96.788ZM511.325 101V29.4305H502.901V101H511.325ZM515.604 97.3272H531.778V88.9033H515.604V97.3272ZM531.778 97.3272C536.258 97.3272 540.488 96.7392 544.439 95.5235L541.962 87.4721C538.904 88.413 535.519 88.9033 531.778 88.9033V97.3272ZM544.439 95.5235C548.459 94.2868 552.021 92.3639 555.06 89.7247L549.537 83.3644C547.454 85.1731 544.951 86.5523 541.962 87.4721L544.439 95.5235ZM555.107 89.6835C558.178 86.9353 560.544 83.5067 562.243 79.4922L554.485 76.21C553.218 79.2042 551.54 81.5712 549.49 83.4057L555.107 89.6835ZM562.243 79.4922C563.999 75.3407 564.8 70.5407 564.8 65.2152H556.376C556.376 69.7289 555.693 73.3528 554.485 76.21L562.243 79.4922ZM564.8 65.2152C564.8 59.8898 563.999 55.0898 562.243 50.9382L554.485 54.2205C555.693 57.0776 556.376 60.7016 556.376 65.2152H564.8ZM562.243 50.9382C560.541 46.9151 558.162 43.5007 555.06 40.8068L549.537 47.1672C551.556 48.9211 553.222 51.235 554.485 54.2205L562.243 50.9382ZM555.107 40.8481C552.063 38.1245 548.485 36.1518 544.439 34.9069L541.962 42.9583C544.925 43.87 547.412 45.2668 549.49 47.1259L555.107 40.8481ZM544.439 34.907C540.488 33.6913 536.258 33.1033 531.778 33.1033V41.5272C535.519 41.5272 538.904 42.0175 541.962 42.9583L544.439 34.907ZM531.778 33.1033H515.604V41.5272H531.778V33.1033ZM511.392 37.3153V93.1152H519.816V37.3153H511.392Z" fill="#FEFEFE"/>
<path d="M43.0786 167.818C41.5877 165.815 39.7474 164.324 37.5576 163.346C35.3679 162.321 33.085 161.808 30.7089 161.808C27.9601 161.808 25.4209 162.367 23.0914 163.486C20.8085 164.604 18.8284 166.118 17.1512 168.028C15.4739 169.892 14.1694 172.081 13.2376 174.597C12.3058 177.067 11.8399 179.652 11.8399 182.355C11.8399 185.243 12.3058 187.945 13.2376 190.461C14.1694 192.931 15.4506 195.097 17.0813 196.961C18.7585 198.778 20.7386 200.222 23.0215 201.293C25.351 202.365 27.9135 202.901 30.7089 202.901C33.7373 202.901 36.4395 202.318 38.8156 201.154C41.1917 199.942 43.2649 198.219 45.0354 195.982L49.4381 199.686C47.2018 202.668 44.4996 204.858 41.3314 206.255C38.2099 207.653 34.6691 208.352 30.7089 208.352C27.1681 208.352 23.8602 207.7 20.7852 206.395C17.7103 205.091 15.0313 203.297 12.7484 201.014C10.5121 198.684 8.74165 195.936 7.43713 192.767C6.1792 189.599 5.55023 186.128 5.55023 182.355C5.55023 178.721 6.1559 175.319 7.36724 172.151C8.62518 168.983 10.3723 166.234 12.6086 163.905C14.845 161.575 17.5006 159.735 20.5755 158.384C23.6505 157.033 27.0283 156.357 30.7089 156.357C34.0634 156.357 37.2781 156.963 40.3531 158.174C43.4746 159.386 46.0836 161.366 48.1802 164.115L43.0786 167.818ZM100.252 157.615H106.122V207.094H100.252V157.615ZM161.036 157.615H168.443L197.096 198.708H197.236V157.615H203.106V207.094H195.699L167.046 166.001H166.906V207.094H161.036V157.615ZM258.059 157.615H289.157V163.066H263.929V178.581H287.48V184.032H263.929V201.643H290.415V207.094H258.059V157.615ZM342.115 157.615H350.85L367.623 196.401H367.762L384.675 157.615H393.201V207.094H387.33V165.582H387.191L369.44 207.094H365.876L348.125 165.582H347.985V207.094H342.115V157.615ZM464.22 157.615H469.741L490.776 207.094H483.927L478.896 194.934H454.156L449.055 207.094H442.416L464.22 157.615ZM466.875 165.163H466.736L456.463 189.483H476.659L466.875 165.163ZM563.464 166.351C562.486 164.767 561.181 163.625 559.55 162.926C557.92 162.181 556.219 161.808 554.449 161.808C553.144 161.808 551.863 161.971 550.605 162.298C549.347 162.624 548.206 163.113 547.181 163.765C546.202 164.417 545.41 165.279 544.805 166.351C544.199 167.422 543.896 168.68 543.896 170.125C543.896 171.243 544.059 172.245 544.385 173.13C544.758 173.968 545.34 174.737 546.132 175.436C546.924 176.135 547.996 176.787 549.347 177.393C550.698 177.998 552.352 178.604 554.309 179.21C556.219 179.815 558.059 180.468 559.83 181.167C561.647 181.865 563.231 182.751 564.582 183.822C565.98 184.894 567.075 186.245 567.867 187.876C568.705 189.46 569.125 191.463 569.125 193.886C569.125 196.355 568.635 198.498 567.657 200.315C566.679 202.132 565.374 203.646 563.743 204.858C562.159 206.022 560.319 206.884 558.223 207.443C556.126 208.049 553.96 208.352 551.723 208.352C550.279 208.352 548.835 208.212 547.39 207.933C545.946 207.7 544.548 207.327 543.197 206.814C541.893 206.255 540.658 205.556 539.493 204.718C538.329 203.833 537.327 202.761 536.488 201.503L541.52 197.38C542.592 199.197 544.082 200.571 545.993 201.503C547.903 202.435 549.929 202.901 552.073 202.901C553.331 202.901 554.588 202.714 555.846 202.342C557.151 201.969 558.316 201.433 559.341 200.734C560.366 199.989 561.204 199.08 561.857 198.009C562.509 196.937 562.835 195.703 562.835 194.305C562.835 192.767 562.579 191.533 562.066 190.601C561.554 189.623 560.762 188.784 559.69 188.085C558.619 187.386 557.267 186.757 555.637 186.198C554.006 185.639 552.096 184.987 549.906 184.241C548.136 183.682 546.505 183.053 545.014 182.355C543.523 181.609 542.219 180.724 541.101 179.699C540.029 178.627 539.167 177.369 538.515 175.925C537.909 174.434 537.606 172.664 537.606 170.614C537.606 168.238 538.072 166.165 539.004 164.394C539.936 162.624 541.194 161.156 542.778 159.991C544.362 158.78 546.156 157.871 548.159 157.266C550.162 156.66 552.259 156.357 554.449 156.357C557.244 156.357 559.783 156.8 562.066 157.685C564.396 158.524 566.469 160.015 568.286 162.158L563.464 166.351Z" fill="#FEFEFE"/>
</svg>
