<svg width="92" height="92" viewBox="0 0 92 92" fill="none" xmlns="http://www.w3.org/2000/svg">
<circle cx="46" cy="46" r="46" fill="#BBF7D0"/>
<path d="M35.7812 26.7251V64.6451" stroke="#A5A8AB" stroke-width="3" stroke-linecap="round" stroke-linejoin="round"/>
<path d="M55.7812 26.7251V64.6451" stroke="#A5A8AB" stroke-width="3" stroke-linecap="round" stroke-linejoin="round"/>
<path d="M35.7781 35.6255H27.0781" stroke="#A5A8AB" stroke-width="3" stroke-linecap="round" stroke-linejoin="round"/>
<path d="M35.7786 45.686H26.0586" stroke="#A5A8AB" stroke-width="3" stroke-linecap="round" stroke-linejoin="round"/>
<path d="M35.7809 55.625H26.9609" stroke="#A5A8AB" stroke-width="3" stroke-linecap="round" stroke-linejoin="round"/>
<path d="M65.7781 35.6255H57.0781" stroke="#A5A8AB" stroke-width="3" stroke-linecap="round" stroke-linejoin="round"/>
<path d="M65.7786 45.686H56.0586" stroke="#A5A8AB" stroke-width="3" stroke-linecap="round" stroke-linejoin="round"/>
<path d="M55.9414 45.686H33.9414" stroke="#A5A8AB" stroke-width="3" stroke-linecap="round" stroke-linejoin="round"/>
<path d="M65.7809 55.625H56.9609" stroke="#A5A8AB" stroke-width="3" stroke-linecap="round" stroke-linejoin="round"/>
<path d="M40 65.6855H52C62 65.6855 66 61.6855 66 51.6855V39.6855C66 29.6855 62 25.6855 52 25.6855H40C30 25.6855 26 29.6855 26 39.6855V51.6855C26 61.6855 30 65.6855 40 65.6855Z" stroke="#292D32" stroke-width="3" stroke-linecap="round" stroke-linejoin="round"/>
</svg>
