<svg width="92" height="92" viewBox="0 0 92 92" fill="none" xmlns="http://www.w3.org/2000/svg">
<circle cx="46" cy="46" r="46" fill="#BBF7D0"/>
<path d="M35.44 59.2816L34.7907 58.7274L31.2275 55.6855H24.5V56.9355C24.5 59.4024 26.1781 61.1525 27.9494 61.1857L28.7853 61.2014L28.918 62.0269C29.1211 63.291 29.6076 64.4002 30.3096 65.2481L35.44 59.2816ZM35.44 59.2816L36.0893 58.7274L39.6525 55.6855H57M35.44 59.2816L57 55.6855M57 55.6855L56.9999 56.9355L57 56.945C57.0099 57.985 56.6776 58.9993 56.0545 59.8319C55.4002 60.6787 54.5021 61.1667 53.5513 61.1838L52.7148 61.1989L52.582 62.025C52.3789 63.2891 51.8923 64.3983 51.1903 65.2463L51.19 65.2467C50.1623 66.4895 48.6666 67.1855 46.9375 67.1855H34.5625C32.8333 67.1855 31.3374 66.4894 30.3097 65.2481L57 55.6855Z" stroke="#A5A8AB" stroke-width="2"/>
<path d="M32.4362 50.8799L32.1719 50.6855H31.8437H24.5118C24.5622 50.1417 24.7734 49.623 25.1212 49.1969C25.5222 48.7057 26.0803 48.3678 26.7014 48.24L27.4782 48.0803L27.4996 47.2876C27.5657 44.8449 28.5618 42.8492 30.2356 41.4502C31.922 40.0408 34.3621 39.1855 37.375 39.1855H44.125C46.9359 39.1855 49.3141 39.9404 51.0559 41.299L51.058 41.3007C52.9182 42.7436 53.9313 44.7864 54.0003 47.2881L54.0222 48.0804L54.7986 48.24C55.4197 48.3678 55.9778 48.7057 56.3788 49.1969C56.7266 49.623 56.9378 50.1417 56.9882 50.6855H39.0625H38.7367L38.4734 50.8775L35.4398 53.0889L32.4362 50.8799Z" stroke="#A5A8AB" stroke-width="2"/>
<path d="M57.4508 30.4434L57.14 31.686H58.4209H65.4137H67.5V32.6907H66.7562H65.8562L65.7617 33.5858L62.3508 65.9152C62.2711 66.4997 62.1142 66.7803 61.9682 66.9217C61.8384 67.0475 61.5853 67.1907 61 67.1907H55.9306C56.2682 66.6399 56.558 66.0606 56.7965 65.4588C57.9369 64.9351 58.949 64.1645 59.7585 63.2006C61.2115 61.4816 62 59.2545 62 56.936V56.9357C61.9996 55.848 61.8218 54.7686 61.4744 53.7398C62.102 52.1208 62.169 50.3333 61.6573 48.6656C61.1488 47.0082 60.1007 45.5734 58.6864 44.5855C58.4694 43.5834 58.1312 42.6108 57.6789 41.6894L57.6777 41.687C56.8388 39.9897 55.6233 38.5065 54.1238 37.3506C51.4861 35.2959 48.0841 34.2233 44.3228 34.187L44.2511 33.5706L44.1483 32.686H43.2578H42.5V31.686H55.3291H56.1163L56.3011 30.9208L57.528 25.8407L61.8741 24.4387L62.1659 25.2847L58.9319 26.3973L58.4187 26.5738L58.2871 27.1002L57.4508 30.4434Z" fill="#292D32" stroke="#292D32" stroke-width="2"/>
</svg>
