<svg width="92" height="92" viewBox="0 0 92 92" fill="none" xmlns="http://www.w3.org/2000/svg">
<circle cx="46" cy="46" r="46" fill="#BBF7D0"/>
<path d="M63.6787 26.0439L55.8187 27.6039L61.2987 34.6839L65.2387 33.8839L63.6787 26.0439ZM49.9387 28.7639L45.9987 29.5439L51.4987 36.6039L55.4187 35.8239L49.9387 28.7639ZM40.1387 30.6839L36.1987 31.5039L41.6987 38.5639L45.6187 37.7839L40.1387 30.6839ZM30.3187 32.6839L28.3587 33.0639C27.8435 33.1655 27.3534 33.3678 26.9165 33.6592C26.4797 33.9506 26.1046 34.3254 25.8129 34.762C25.5212 35.1987 25.3185 35.6886 25.2166 36.2038C25.1146 36.7189 25.1153 37.2491 25.2187 37.7639L25.9987 41.6839L35.7987 39.7439L30.3187 32.6839ZM61.9987 45.6839V61.6839H29.9987V45.6839H61.9987ZM65.9986 41.6839H25.9987V61.6839C25.9987 62.7448 26.4201 63.7622 27.1703 64.5123C27.9204 65.2625 28.9378 65.6839 29.9987 65.6839H61.9987C64.2187 65.6839 65.9986 63.9039 65.9986 61.6839V41.6839Z" fill="#292D32"/>
</svg>
