<svg width="92" height="92" viewBox="0 0 92 92" fill="none" xmlns="http://www.w3.org/2000/svg">
<circle cx="46" cy="46" r="46" fill="#BBF7D0"/>
<path d="M55.9975 63.1855H35.9975C27.4975 63.1855 24.7175 60.6455 24.5175 52.7255C24.5175 52.3255 24.6575 51.9255 24.9375 51.6455C25.2175 51.3655 25.5975 51.1855 26.0175 51.1855C29.0375 51.1855 31.4975 48.7055 31.4975 45.6855C31.4975 42.6655 29.0375 40.1855 26.0175 40.1855C25.6175 40.1855 25.2375 40.0255 24.9375 39.7255C24.6375 39.4255 24.4975 39.0455 24.5175 38.6455C24.7175 30.7255 27.4975 28.1855 35.9975 28.1855H55.9975C64.8175 28.1855 67.4975 30.8655 67.4975 39.6855V51.6855C67.4975 60.5055 64.8175 63.1855 55.9975 63.1855ZM27.5775 54.0455C27.9175 59.1255 29.6375 60.1855 35.9975 60.1855H55.9975C63.1575 60.1855 64.4975 58.8255 64.4975 51.6855V39.6855C64.4975 32.5455 63.1575 31.1855 55.9975 31.1855H35.9975C29.6375 31.1855 27.9175 32.2655 27.5775 37.3255C31.5175 38.0855 34.4975 41.5455 34.4975 45.6855C34.4975 49.8255 31.5175 53.2855 27.5775 54.0455Z" fill="#292D32"/>
<path d="M40 38.1855C39.18 38.1855 38.5 37.5055 38.5 36.6855V29.6855C38.5 28.8655 39.18 28.1855 40 28.1855C40.82 28.1855 41.5 28.8655 41.5 29.6855V36.6855C41.5 37.5055 40.82 38.1855 40 38.1855Z" fill="#292D32"/>
<path d="M40 63.1855C39.18 63.1855 38.5 62.5055 38.5 61.6855V54.6855C38.5 53.8655 39.18 53.1855 40 53.1855C40.82 53.1855 41.5 53.8655 41.5 54.6855V61.6855C41.5 62.5055 40.82 63.1855 40 63.1855Z" fill="#292D32"/>
<path d="M48.0803 52.9848C47.6003 52.9848 47.1203 52.8248 46.7203 52.5448C46.0003 52.0248 45.6403 51.1448 45.8003 50.2648L46.2203 47.8848L44.4803 46.1848C43.8403 45.5648 43.6203 44.6448 43.8803 43.8048C44.1603 42.9648 44.8803 42.3448 45.7603 42.2248L48.1603 41.8648L49.2403 39.6848C49.6403 38.8848 50.4403 38.3848 51.3203 38.3848C52.2203 38.3848 53.0203 38.8848 53.4003 39.6848L54.4803 41.8648L56.8803 42.2248C57.7603 42.3448 58.4803 42.9648 58.7603 43.8048C59.0403 44.6448 58.8003 45.5648 58.1603 46.1848L56.4203 47.8848L56.8403 50.2648C57.0003 51.1448 56.6403 52.0248 55.9203 52.5448C55.2003 53.0648 54.2603 53.1248 53.4803 52.7248L51.3403 51.6048L49.1803 52.7248C48.8403 52.9048 48.4603 52.9848 48.0803 52.9848ZM47.5403 44.9848L48.5603 45.9848C49.1203 46.5248 49.3603 47.2848 49.2403 48.0448L49.0003 49.4448L50.2603 48.7848C50.9403 48.4248 51.7403 48.4248 52.4203 48.7848L53.6803 49.4448L53.4403 48.0448C53.3203 47.2648 53.5603 46.5048 54.1203 45.9848L55.1403 44.9848L53.7403 44.7848C52.9803 44.6648 52.3203 44.1848 51.9803 43.5048L51.3603 42.2248L50.7403 43.5048C50.4003 44.1848 49.7403 44.6648 48.9803 44.7848L47.5403 44.9848Z" fill="#A5A8AB"/>
</svg>
