<svg width="92" height="92" viewBox="0 0 92 92" fill="none" xmlns="http://www.w3.org/2000/svg">
<circle cx="46" cy="46" r="46" fill="#BAE6FD"/>
<path fill-rule="evenodd" clip-rule="evenodd" d="M59.1802 60.7202C60.2802 59.0402 60.6803 58.2002 61.5203 56.3202C55.3603 53.9802 54.3603 45.2002 60.4603 41.8402C58.6003 39.5002 55.9803 38.1602 53.5203 38.1602C51.7403 38.1602 50.5202 38.6202 49.4202 39.0402C48.5002 39.4002 47.6402 39.7202 46.6202 39.7202C45.5002 39.7202 44.5202 39.3602 43.4802 39.0002C42.3402 38.6002 41.1602 38.1602 39.6802 38.1602C36.9002 38.1602 33.9603 39.8602 32.0803 42.7402C29.4603 46.8202 29.9003 54.4802 34.1603 61.0202C35.6803 63.3602 37.7203 65.9802 40.3803 66.0002C41.4803 66.0202 42.2203 65.6802 43.0203 65.3202C43.9403 64.9202 44.9202 64.4602 46.6402 64.4602C48.3602 64.4402 49.3403 64.9002 50.2403 65.3202C51.0203 65.6802 51.7403 66.0002 52.8203 66.0002C55.5003 65.9802 57.6602 63.0602 59.1802 60.7202Z" stroke="#12131A" stroke-width="3" stroke-miterlimit="10" stroke-linecap="round" stroke-linejoin="round"/>
<path opacity="0.5" fill-rule="evenodd" clip-rule="evenodd" d="M54.0168 26.1406C54.3368 28.3406 53.4368 30.5206 52.2568 32.0406C50.9968 33.6806 48.7968 34.9606 46.6768 34.8806C46.2968 32.7606 47.2768 30.5806 48.4768 29.1206C49.8168 27.5206 52.0768 26.2806 54.0168 26.1406Z" stroke="#12131A" stroke-width="3" stroke-miterlimit="10" stroke-linecap="round" stroke-linejoin="round"/>
</svg>
