<svg width="92" height="92" viewBox="0 0 92 92" fill="none" xmlns="http://www.w3.org/2000/svg">
<circle cx="46" cy="46" r="46" fill="#FECACA"/>
<g clip-path="url(#clip0_430_13346)">
<path fill-rule="evenodd" clip-rule="evenodd" d="M34.6036 38.8295C34.2658 36.9113 34 34.8227 34 33V22H58V33C58 34.8227 57.7342 36.9113 57.3964 38.8295C56.8275 42.0606 54.7123 44.7573 51.7899 46C54.7123 47.2427 56.8275 49.9394 57.3964 53.1705C57.7342 55.0887 58 57.1773 58 59V70H34V59C34 57.1773 34.2658 55.0887 34.6036 53.1705C35.1725 49.9394 37.2877 47.2427 40.2101 46C37.2877 44.7573 35.1725 42.0606 34.6036 38.8295Z" fill="#C28182"/>
<path d="M30 24C30 22.8954 30.8954 22 32 22H60C61.1046 22 62 22.8954 62 24V24C62 25.1046 61.1046 26 60 26H32C30.8954 26 30 25.1046 30 24V24Z" fill="#12131A"/>
<path d="M30 68C30 66.8954 30.8954 66 32 66H60C61.1046 66 62 66.8954 62 68V68C62 69.1046 61.1046 70 60 70H32C30.8954 70 30 69.1046 30 68V68Z" fill="#12131A"/>
<path d="M38 66C38 64.7743 38.6925 63.6538 39.7889 63.1056L44.2111 60.8945C45.3373 60.3314 46.6627 60.3314 47.7889 60.8945L52.2111 63.1056C53.3075 63.6538 54 64.7743 54 66V66H38V66Z" fill="#12131A"/>
</g>
<defs>
<clipPath id="clip0_430_13346">
<rect width="48" height="48" fill="white" transform="translate(22 22)"/>
</clipPath>
</defs>
</svg>
