<svg width="92" height="92" viewBox="0 0 92 92" fill="none" xmlns="http://www.w3.org/2000/svg">
<circle cx="46" cy="46" r="46" fill="#FECACA"/>
<path d="M46.3211 43.74C46.1211 43.72 45.8811 43.72 45.6611 43.74C40.9011 43.58 37.1211 39.68 37.1211 34.88C37.1211 29.98 41.0811 26 46.0011 26C50.9011 26 54.8811 29.98 54.8811 34.88C54.8611 39.68 51.0811 43.58 46.3211 43.74Z" fill="#C28182" stroke="#C28182" stroke-width="3" stroke-linecap="round" stroke-linejoin="round"/>
<path d="M36.3214 51.12C31.4814 54.36 31.4814 59.64 36.3214 62.86C41.8214 66.54 50.8414 66.54 56.3414 62.86C61.1814 59.62 61.1814 54.34 56.3414 51.12C50.8614 47.46 41.8414 47.46 36.3214 51.12Z" stroke="#12131A" stroke-width="3" stroke-linecap="round" stroke-linejoin="round"/>
</svg>
